<?xml version="1.0" standalone="no"?>
<!DOCTYPE svg PUBLIC "-//W3C//DTD SVG 20010904//EN"
 "http://www.w3.org/TR/2001/REC-SVG-20010904/DTD/svg10.dtd">
<svg version="1.0" xmlns="http://www.w3.org/2000/svg"
 width="620.000000pt" height="620.000000pt" viewBox="0 0 620.000000 620.000000"
 preserveAspectRatio="xMidYMid meet">
<metadata>
Created by potrace 1.16, written by Peter Selinger 2001-2019
</metadata>
<g transform="translate(0.000000,620.000000) scale(0.100000,-0.100000)"
fill="#000000" stroke="none">
<path d="M1118 5999 c-56 -21 -58 -37 -58 -492 l0 -416 -347 -242 c-192 -134
-400 -279 -464 -323 -64 -45 -124 -92 -135 -106 -18 -24 -19 -60 -19 -1323 l0
-1299 33 -29 32 -29 450 0 450 0 0 -731 c0 -797 -1 -782 56 -808 36 -16 3932
-16 3968 0 57 26 56 11 56 808 l0 731 450 0 450 0 32 29 33 29 0 1299 c0 1263
-1 1299 -19 1323 -11 14 -71 61 -135 106 -64 44 -272 189 -463 323 l-348 242
0 416 c0 461 -1 471 -62 492 -41 14 -3921 14 -3960 0z m3822 -864 l0 -675
-145 0 -145 0 0 200 c0 133 -4 208 -12 225 -26 58 61 55 -1537 55 -1118 0
-1476 -3 -1496 -12 -50 -22 -55 -49 -55 -268 l0 -200 -145 0 -145 0 0 675 0
675 1840 0 1840 0 0 -675z m-3870 -480 l0 -195 -277 0 c-152 0 -273 3 -269 8
12 13 531 380 539 381 4 1 7 -87 7 -194z m4343 2 c147 -104 267 -190 267 -193
0 -2 -124 -4 -275 -4 l-275 0 0 196 c0 108 4 194 8 192 4 -1 128 -88 275 -191z
m-955 -54 l3 -143 -1361 0 -1360 0 0 138 c0 76 3 142 7 145 3 4 614 6 1357 5
l1351 -3 3 -142z m1452 -1503 l0 -1160 -2810 0 -2810 0 0 1160 0 1160 2810 0
2810 0 0 -1160z m-4360 -1560 c0 -224 6 -250 61 -269 45 -16 2933 -16 2978 0
55 19 61 45 61 269 l0 200 145 0 145 0 0 -675 0 -675 -1840 0 -1840 0 0 675 0
675 145 0 145 0 0 -200z m2908 58 l-3 -143 -1355 0 -1355 0 -3 143 -3 142
1361 0 1361 0 -3 -142z"/>
<path d="M2320 5425 l0 -95 780 0 780 0 0 95 0 95 -780 0 -780 0 0 -95z"/>
<path d="M2030 5135 l0 -95 1070 0 1070 0 0 95 0 95 -1070 0 -1070 0 0 -95z"/>
<path d="M1747 3956 c-55 -20 -112 -62 -142 -106 -55 -80 -55 -73 -55 -847 l0
-715 29 -29 c41 -40 96 -41 134 -1 l27 28 0 357 0 357 290 0 290 0 0 -329 c0
-181 3 -342 6 -360 19 -95 146 -112 183 -24 8 21 11 218 9 748 l-3 720 -25 48
c-30 60 -78 110 -133 140 -40 21 -54 22 -307 24 -206 2 -274 0 -303 -11z m523
-191 c16 -8 34 -24 40 -34 6 -12 10 -119 10 -275 l0 -256 -290 0 -290 0 0 239
c0 262 5 292 54 322 28 17 52 19 239 19 166 0 214 -3 237 -15z"/>
<path d="M2804 3954 c-53 -19 -117 -74 -149 -127 -37 -64 -48 -164 -43 -392 4
-190 5 -203 29 -255 44 -92 112 -148 207 -169 30 -6 146 -11 268 -11 l216 0
29 -29 29 -29 0 -222 c0 -246 -5 -269 -61 -289 -21 -7 -141 -11 -344 -11
l-311 0 -27 -28 c-30 -31 -37 -93 -14 -123 28 -37 49 -39 385 -39 367 0 387 3
461 66 23 20 53 57 69 82 l27 47 3 265 c4 286 1 308 -48 382 -71 108 -140 128
-442 128 -215 0 -217 0 -245 24 l-28 24 -3 223 c-2 151 1 231 8 250 23 55 47
59 391 59 l313 0 28 27 c39 37 39 99 2 137 l-27 26 -341 -1 c-272 0 -349 -4
-382 -15z"/>
<path d="M3727 3959 c-48 -28 -47 -15 -47 -859 0 -686 2 -795 15 -820 31 -60
103 -69 151 -19 l29 30 3 582 3 581 103 -210 c110 -224 119 -234 190 -234 49
0 73 33 183 250 l98 195 5 -588 5 -589 28 -24 c37 -32 87 -32 124 0 l28 24 3
817 2 816 -29 30 c-38 37 -87 39 -128 5 -18 -16 -80 -129 -178 -325 l-150
-301 -156 312 c-86 171 -165 317 -175 325 -21 15 -81 17 -107 2z"/>
<path d="M2030 1065 l0 -95 1070 0 1070 0 0 95 0 95 -1070 0 -1070 0 0 -95z"/>
<path d="M2320 775 l0 -95 780 0 780 0 0 95 0 95 -780 0 -780 0 0 -95z"/>
</g>
</svg>
