<?xml version="1.0" standalone="no"?>
<!DOCTYPE svg PUBLIC "-//W3C//DTD SVG 20010904//EN"
 "http://www.w3.org/TR/2001/REC-SVG-20010904/DTD/svg10.dtd">
<svg version="1.0" xmlns="http://www.w3.org/2000/svg"
 width="620.000000pt" height="620.000000pt" viewBox="0 0 620.000000 620.000000"
 preserveAspectRatio="xMidYMid meet">
<metadata>
Created by potrace 1.16, written by Peter Selinger 2001-2019
</metadata>
<g transform="translate(0.000000,620.000000) scale(0.100000,-0.100000)"
fill="#000000" stroke="none">
<path d="M2915 5004 c-220 -31 -360 -64 -485 -113 -498 -193 -884 -563 -1090
-1042 -219 -511 -199 -1115 55 -1618 54 -109 186 -299 278 -402 273 -307 639
-519 1033 -598 162 -33 305 -44 479 -38 602 22 1165 341 1507 853 32 48 58 90
58 94 0 7 -600 365 -612 365 -4 0 -30 -33 -58 -73 -182 -259 -451 -436 -755
-497 -110 -23 -328 -25 -435 -6 -80 14 -248 70 -315 103 -156 79 -349 245
-444 382 -213 308 -274 692 -165 1036 61 194 148 337 298 486 174 175 345 269
591 326 123 28 353 30 475 4 310 -67 586 -253 752 -507 l50 -77 146 85 c81 47
222 129 314 182 l167 96 -21 35 c-62 103 -174 247 -271 347 -279 288 -602 465
-999 548 -103 22 -156 27 -323 30 -110 2 -213 1 -230 -1z"/>
</g>
</svg>
