<?xml version="1.0" standalone="no"?>
<!DOCTYPE svg PUBLIC "-//W3C//DTD SVG 20010904//EN"
 "http://www.w3.org/TR/2001/REC-SVG-20010904/DTD/svg10.dtd">
<svg version="1.0" xmlns="http://www.w3.org/2000/svg"
 width="2222.000000pt" height="2500.000000pt" viewBox="0 0 2222.000000 2500.000000"
 preserveAspectRatio="xMidYMid meet">
<metadata>
Created by potrace 1.16, written by Peter Selinger 2001-2019
</metadata>
<g transform="translate(0.000000,2500.000000) scale(0.100000,-0.100000)"
fill="#000000" stroke="none">
<path d="M10865 19874 c-1159 -39 -2281 -342 -3280 -885 -667 -362 -1217 -778
-1766 -1336 -1183 -1202 -1920 -2798 -2068 -4478 -43 -477 -29 -1110 34 -1600
160 -1248 626 -2410 1375 -3429 748 -1019 1783 -1853 2930 -2363 948 -421
1947 -633 2991 -633 860 -1 1611 125 2431 406 767 263 1546 694 2183 1207 309
249 688 610 925 882 308 354 593 746 817 1126 l51 86 -1586 919 c-872 505
-1591 923 -1599 927 -9 6 -21 -6 -40 -39 -64 -108 -228 -346 -310 -449 -121
-152 -422 -452 -576 -574 -560 -443 -1209 -707 -1927 -783 -158 -16 -597 -16
-750 1 -389 43 -791 155 -1142 317 -1104 510 -1888 1539 -2087 2739 -33 198
-44 366 -45 645 0 282 10 391 60 651 280 1450 1420 2599 2869 2894 273 55 422
69 735 70 364 0 594 -28 930 -115 614 -159 1160 -468 1624 -920 219 -214 413
-453 571 -708 l50 -80 1590 916 c875 505 1596 921 1602 925 14 9 -51 118 -232
392 -272 413 -557 759 -924 1125 -439 439 -837 755 -1344 1069 -1021 633
-2207 1011 -3387 1080 -196 12 -565 19 -705 15z"/>
<path d="M16820 13360 l0 -420 -420 0 -420 0 0 -420 0 -420 420 0 420 0 2
-422 3 -423 418 -3 417 -2 0 425 0 425 425 0 425 0 0 420 0 420 -425 0 -425 0
0 420 0 420 -420 0 -420 0 0 -420z"/>
<path d="M19900 13360 l0 -420 -420 0 -420 0 0 -420 0 -420 420 0 420 0 2
-422 3 -423 418 -3 417 -2 0 425 0 425 425 0 425 0 0 420 0 420 -425 0 -425 0
0 420 0 420 -420 0 -420 0 0 -420z"/>
</g>
</svg>
