<?xml version="1.0" standalone="no"?>
<!DOCTYPE svg PUBLIC "-//W3C//DTD SVG 20010904//EN"
 "http://www.w3.org/TR/2001/REC-SVG-20010904/DTD/svg10.dtd">
<svg version="1.0" xmlns="http://www.w3.org/2000/svg"
 width="620.000000pt" height="620.000000pt" viewBox="0 0 620.000000 620.000000"
 preserveAspectRatio="xMidYMid meet">
<metadata>
Created by potrace 1.16, written by Peter Selinger 2001-2019
</metadata>
<g transform="translate(0.000000,620.000000) scale(0.100000,-0.100000)"
fill="#000000" stroke="none">
<path d="M2890 4999 c-570 -65 -1080 -379 -1393 -859 -200 -307 -306 -662
-307 -1023 0 -397 105 -753 318 -1072 296 -443 734 -730 1262 -827 94 -17 156
-21 340 -22 208 0 235 2 355 28 517 109 942 395 1229 826 31 47 55 88 54 92
-3 6 -523 319 -589 353 -26 14 -27 13 -75 -58 -62 -91 -188 -223 -273 -286
-217 -160 -440 -234 -711 -235 -259 0 -447 56 -660 199 -94 63 -228 188 -293
275 -257 341 -308 822 -128 1205 288 615 1008 867 1612 564 178 -89 355 -246
454 -403 l47 -74 82 47 c44 27 185 108 311 181 127 73 231 134 232 135 4 2
-107 166 -156 230 -25 33 -86 102 -136 154 -408 423 -995 636 -1575 570z"/>
<path d="M4845 3718 c-2 -7 -16 -75 -31 -150 l-27 -138 -123 0 -124 0 0 -115
0 -115 100 0 c55 0 100 -4 100 -9 0 -9 -23 -125 -35 -176 -4 -18 -11 -20 -85
-17 l-80 4 0 -116 0 -116 59 0 58 0 -28 -137 c-15 -76 -28 -141 -29 -145 0 -5
51 -8 114 -8 l114 0 28 145 28 145 93 0 c51 0 93 -4 93 -9 0 -4 -11 -63 -25
-131 -14 -68 -25 -129 -25 -136 0 -11 24 -14 114 -14 l115 0 10 53 c6 28 19
93 29 142 l18 90 122 3 122 3 0 114 0 115 -101 0 c-91 0 -100 2 -95 18 3 9 12
56 22 105 l17 87 78 0 79 0 0 110 0 110 -55 0 c-40 0 -55 4 -55 14 0 7 11 68
25 136 14 68 25 129 25 137 0 11 -22 13 -112 11 l-113 -3 -17 -95 c-10 -52
-23 -119 -29 -147 l-10 -53 -95 0 c-52 0 -94 2 -94 4 0 4 48 245 55 274 5 22
5 22 -110 22 -84 0 -117 -3 -120 -12z m311 -540 c-3 -13 -13 -60 -22 -105
l-17 -83 -93 0 c-52 0 -94 2 -94 4 0 2 9 48 20 101 11 53 20 99 20 101 0 2 43
4 96 4 95 0 96 0 90 -22z"/>
</g>
</svg>
