<?xml version="1.0" standalone="no"?>
<!DOCTYPE svg PUBLIC "-//W3C//DTD SVG 20010904//EN"
 "http://www.w3.org/TR/2001/REC-SVG-20010904/DTD/svg10.dtd">
<svg version="1.0" xmlns="http://www.w3.org/2000/svg"
 width="1050.000000pt" height="1050.000000pt" viewBox="0 0 1050.000000 1050.000000"
 preserveAspectRatio="xMidYMid meet">
<metadata>
Created by potrace 1.10, written by Peter Selinger 2001-2011
</metadata>
<g transform="translate(0.000000,1050.000000) scale(0.100000,-0.100000)"
fill="#000000" stroke="none">
<path d="M5169 9060 c-8 -5 -38 -17 -65 -26 -27 -9 -89 -35 -139 -59 -49 -23
-110 -50 -135 -60 -66 -25 -118 -51 -180 -90 -30 -19 -63 -34 -72 -35 -9 0
-19 -4 -23 -9 -3 -5 -22 -15 -43 -21 -33 -10 -182 -71 -222 -90 -34 -17 -67
-31 -105 -44 -38 -13 -134 -57 -165 -76 -8 -5 -23 -11 -32 -14 -10 -3 -18 -12
-18 -21 0 -14 29 -21 70 -15 21 2 99 40 106 51 3 5 12 9 21 9 8 0 29 6 46 14
18 7 52 21 77 31 25 9 72 30 105 46 33 16 64 29 68 29 5 0 20 9 34 20 47 37
81 28 312 -89 119 -59 231 -112 249 -116 45 -9 59 -42 43 -95 -10 -33 -17 -41
-49 -50 -20 -5 -46 -10 -56 -10 -30 0 -95 -33 -96 -49 0 -10 -9 -12 -34 -7
-20 4 -37 2 -41 -4 -3 -5 -1 -10 4 -10 6 0 11 -5 11 -10 0 -6 -19 -9 -42 -8
-36 3 -43 0 -40 -14 2 -13 -4 -18 -23 -18 -14 0 -25 -4 -25 -10 0 -5 -12 -13
-27 -16 -16 -4 -32 -13 -38 -20 -5 -7 -26 -14 -45 -16 -34 -3 -35 -4 -32 -39
2 -23 -3 -41 -13 -49 -8 -7 -15 -18 -15 -24 0 -17 60 -54 183 -113 61 -30 119
-60 127 -68 20 -18 196 -105 213 -105 8 0 21 -8 30 -18 37 -41 8 -110 -46
-110 -45 0 -474 -211 -530 -260 -17 -15 -18 -36 -15 -278 3 -254 4 -263 25
-286 24 -25 20 -41 -20 -85 -29 -33 -51 -29 -130 25 -40 26 -80 52 -89 57
-102 58 -204 119 -238 142 -45 30 -143 84 -145 80 0 -1 -6 -14 -13 -29 -10
-23 -18 -28 -48 -28 -28 0 -35 -3 -32 -17 2 -11 11 -17 21 -15 14 2 17 -6 18
-55 4 -245 10 -373 20 -404 10 -33 9 -40 -11 -67 -13 -17 -36 -34 -51 -37 -29
-6 -69 8 -69 25 0 5 -17 19 -37 30 -21 11 -51 29 -68 40 -16 10 -40 25 -52 32
-173 102 -213 130 -266 180 -24 23 -27 34 -26 75 1 26 -3 104 -11 173 -13 136
-9 238 11 251 9 5 0 22 -35 59 -46 49 -47 52 -30 71 24 27 41 24 104 -20 30
-21 135 -86 233 -145 164 -98 217 -120 232 -97 3 5 19 12 35 16 17 4 35 15 40
25 7 12 6 86 0 217 -6 109 -11 236 -10 283 0 47 -1 98 -3 114 -1 23 4 33 23
43 14 7 124 60 245 118 283 137 301 146 331 170 23 19 25 25 19 66 -4 25 -10
50 -13 55 -10 14 -192 115 -351 196 -164 83 -164 83 -158 125 3 18 1 33 -4 33
-5 0 -33 -13 -62 -30 -30 -16 -61 -30 -70 -30 -9 0 -26 -9 -37 -20 -11 -11
-31 -20 -45 -20 -14 0 -25 -4 -25 -10 0 -5 -13 -10 -28 -10 -16 0 -37 -7 -48
-15 -10 -8 -25 -15 -33 -15 -8 0 -35 -10 -60 -21 -156 -73 -214 -100 -283
-129 -43 -18 -94 -47 -114 -64 l-37 -32 16 -110 c10 -60 17 -143 17 -184 0
-41 7 -106 15 -143 8 -37 15 -89 16 -115 1 -26 5 -67 10 -92 4 -25 10 -119 13
-210 3 -91 12 -239 22 -330 9 -91 18 -241 19 -335 2 -201 35 -569 54 -601 10
-18 234 -182 381 -279 96 -64 104 -68 172 -103 53 -28 171 -111 193 -137 6 -6
37 -29 70 -51 33 -22 124 -84 202 -137 78 -53 175 -111 215 -130 40 -18 92
-52 116 -75 42 -40 117 -94 337 -242 55 -38 122 -84 150 -104 29 -21 62 -36
78 -36 27 0 125 60 347 210 41 28 100 68 132 88 31 20 80 57 108 82 29 25 83
59 119 76 36 17 90 48 120 68 29 20 55 36 57 36 8 0 318 212 373 255 31 24 90
61 131 83 41 21 109 62 150 89 41 27 93 62 115 76 22 15 69 47 105 72 36 25
89 61 118 80 28 20 52 41 52 48 0 7 7 59 15 117 23 154 36 288 45 435 4 72 19
211 33 310 41 287 54 434 43 476 -7 27 -4 60 12 140 21 102 30 166 52 379 6
58 15 137 21 176 16 116 18 114 -216 214 -66 28 -129 57 -141 65 -48 31 -266
115 -300 115 -11 0 -29 9 -39 20 -10 11 -25 20 -33 20 -8 0 -34 14 -59 30 -40
27 -263 140 -277 140 -3 0 -44 18 -92 41 -48 23 -137 61 -197 85 -60 24 -147
67 -192 94 -46 28 -85 50 -89 50 -3 0 -29 11 -58 24 -29 13 -78 34 -108 47
-30 12 -62 29 -71 36 -8 7 -23 13 -32 13 -9 0 -18 4 -21 9 -3 4 -34 18 -68 31
-35 12 -71 26 -80 31 -23 12 -88 11 -109 -1z m166 -106 c78 -21 120 -38 139
-57 10 -9 22 -17 27 -17 6 0 17 -7 25 -15 9 -8 28 -15 43 -15 24 0 28 -4 29
-30 0 -18 -6 -33 -16 -39 -9 -5 -14 -13 -10 -16 4 -4 38 5 75 19 86 33 129 34
138 5 11 -33 -13 -69 -46 -69 -14 0 -87 -30 -160 -66 -319 -157 -323 -160
-281 -194 12 -10 22 -27 22 -38 0 -17 -5 -19 -47 -14 -72 7 -86 17 -79 56 5
24 2 37 -11 48 -18 15 -451 231 -485 242 -23 7 -24 52 -2 60 9 3 35 6 58 6 28
0 52 7 69 20 14 11 30 20 36 20 11 0 30 8 136 56 142 64 213 72 340 38z m656
-289 c37 -19 91 -44 121 -55 29 -11 67 -27 83 -35 151 -72 185 -89 185 -97 0
-4 20 -8 45 -8 47 0 85 -25 85 -56 0 -26 -20 -54 -39 -54 -27 0 -97 -33 -282
-132 l-167 -89 -11 -45 c-8 -32 -8 -48 0 -61 12 -19 74 -63 89 -63 5 0 115
-54 244 -120 129 -66 242 -120 250 -120 31 0 35 -33 25 -186 -5 -82 -14 -189
-19 -239 -5 -49 -10 -127 -10 -172 l0 -83 40 -20 c52 -26 64 -25 122 10 26 17
51 30 53 30 12 0 323 190 334 204 17 20 70 21 77 1 4 -8 -1 -54 -10 -102 -20
-107 -56 -405 -56 -461 0 -33 -5 -44 -34 -66 -19 -14 -38 -26 -41 -26 -4 0
-19 -9 -33 -21 -23 -17 -138 -89 -276 -171 -22 -12 -55 -36 -73 -52 -41 -35
-80 -37 -104 -5 -23 29 -24 57 -4 79 11 12 21 63 30 156 9 77 20 182 25 234
10 92 10 96 -11 110 -12 8 -32 26 -46 40 l-24 24 -37 -19 c-20 -11 -93 -52
-162 -93 -69 -40 -132 -77 -140 -82 -8 -5 -58 -36 -111 -69 -109 -69 -144 -76
-160 -33 -8 19 -8 36 0 59 18 48 29 169 36 383 l7 195 -23 14 c-126 77 -470
253 -536 275 -53 18 -70 39 -59 74 4 10 46 36 103 62 54 24 130 62 168 85 71
41 204 105 221 105 5 1 22 11 38 24 24 20 28 28 21 52 -4 16 -7 41 -6 55 3 30
-8 40 -71 63 -27 10 -110 50 -185 89 -76 39 -167 80 -203 92 -70 24 -89 48
-76 98 4 19 18 30 59 45 28 11 122 54 207 94 198 96 243 115 264 117 5 1 40
-15 77 -34z m-2045 -331 c54 -27 112 -57 129 -66 16 -10 89 -48 160 -86 122
-64 130 -69 128 -96 -2 -32 -27 -55 -60 -56 -33 0 -97 -28 -316 -135 -116 -57
-204 -107 -213 -120 -12 -19 -12 -54 0 -272 10 -196 17 -256 29 -273 14 -20
14 -26 2 -50 -22 -43 -64 -53 -97 -23 -25 22 -152 100 -273 167 -55 30 -124
76 -152 101 -50 44 -53 49 -47 84 3 21 1 71 -6 112 -17 110 -31 297 -24 325 8
32 27 30 104 -11 36 -20 83 -44 105 -55 22 -11 49 -25 60 -32 11 -7 39 -25 63
-40 24 -16 47 -28 51 -28 13 0 40 -70 51 -134 5 -33 10 -100 11 -150 0 -50 4
-100 9 -111 5 -12 8 64 7 190 l-2 209 -40 27 c-22 15 -76 46 -120 69 -101 52
-260 145 -302 177 -53 39 -36 83 33 83 15 0 35 6 43 14 9 7 41 23 71 34 30 11
96 41 145 66 50 25 98 46 107 46 9 0 19 4 22 9 4 5 24 12 45 16 22 4 45 13 52
21 6 8 18 14 26 14 7 0 16 7 20 16 10 26 70 12 179 -42z m2760 12 c3 -8 29
-22 57 -31 54 -18 128 -52 186 -86 18 -11 74 -36 125 -56 50 -19 101 -44 113
-55 12 -12 40 -22 63 -24 50 -4 60 -10 60 -33 0 -16 -48 -71 -63 -71 -4 0 -36
-18 -72 -40 -36 -22 -110 -63 -163 -91 -53 -28 -101 -56 -107 -63 -5 -6 -27
-20 -47 -29 -30 -14 -38 -24 -38 -44 l0 -27 28 30 c15 17 43 37 62 44 19 8 41
21 50 30 9 9 50 34 91 54 41 21 107 55 146 76 72 39 73 39 79 16 3 -12 0 -67
-6 -121 -24 -207 -29 -252 -29 -317 -1 -59 -4 -69 -28 -92 -27 -24 -155 -106
-168 -106 -3 0 -42 -23 -88 -51 -45 -29 -102 -63 -127 -77 -25 -14 -56 -33
-69 -44 -29 -22 -74 -24 -91 -3 -10 12 -11 27 -2 68 20 95 58 516 49 540 -5
14 -131 89 -217 130 -30 14 -111 53 -180 86 -69 34 -134 61 -146 61 -11 0 -31
11 -44 25 -34 36 -21 51 96 108 54 27 137 70 184 95 189 104 282 134 296 98z
m-1440 -12 c44 -9 96 -26 116 -40 39 -25 305 -154 318 -154 4 0 13 -7 20 -15
7 -8 27 -15 46 -15 46 0 62 -29 31 -57 -12 -11 -105 -61 -207 -113 -189 -95
-320 -173 -320 -190 0 -18 -49 -10 -59 9 -12 22 -113 83 -281 169 -167 86
-257 139 -263 156 -8 19 12 36 44 36 45 0 247 96 429 203 25 14 46 26 46 27 1
0 37 -7 80 -16z m20 -691 c23 -21 61 -49 85 -62 24 -13 100 -54 169 -91 69
-37 158 -86 199 -109 41 -23 85 -44 97 -47 12 -3 32 -15 44 -26 18 -17 20 -27
16 -71 -3 -29 -10 -137 -16 -242 -6 -104 -13 -208 -16 -230 -3 -22 -5 -68 -5
-103 l2 -63 -43 -18 c-24 -10 -50 -21 -58 -25 -8 -3 -28 -14 -45 -24 -16 -10
-57 -33 -90 -51 -33 -18 -89 -51 -125 -72 -36 -22 -72 -44 -80 -49 -111 -67
-172 -100 -186 -100 -10 0 -27 8 -38 19 -12 10 -48 33 -81 51 -33 17 -72 39
-86 48 -25 16 -199 118 -264 154 -56 32 -120 59 -150 65 -40 8 -47 21 -28 57
14 26 16 78 16 343 0 345 -3 328 64 351 18 6 59 26 90 44 32 19 110 60 173 92
155 79 238 128 278 165 18 17 34 31 36 31 1 0 20 -17 42 -37z m-1233 -799 c50
-31 117 -71 147 -89 30 -17 98 -57 151 -88 83 -49 103 -57 147 -57 59 0 62 -6
30 -58 -21 -34 -22 -44 -19 -282 2 -249 -4 -300 -34 -300 -8 0 -25 20 -37 45
-12 25 -29 45 -37 45 -19 0 -158 76 -197 109 -18 14 -69 46 -114 71 -49 26
-95 60 -113 82 l-31 38 -2 215 c-2 130 1 217 6 220 6 4 -2 21 -16 41 -29 37
-26 64 6 64 11 0 62 -25 113 -56z m2491 20 c3 -9 -3 -27 -15 -42 -17 -23 -19
-35 -14 -88 4 -34 2 -101 -4 -150 -7 -49 -13 -128 -14 -176 -2 -81 -4 -89 -32
-118 -16 -17 -61 -46 -100 -65 -68 -33 -173 -97 -184 -112 -3 -5 -37 -24 -75
-43 -40 -20 -81 -51 -99 -72 -36 -45 -63 -49 -70 -11 -3 15 0 139 5 275 10
244 10 247 -11 283 -26 45 -20 58 24 49 28 -5 49 2 117 39 88 47 264 149 403
234 28 17 62 16 69 -3z m-3173 -315 c19 -17 59 -44 89 -62 30 -17 89 -54 130
-82 101 -68 185 -115 209 -115 11 0 27 10 35 22 l16 22 27 -20 c15 -11 37 -39
49 -62 l22 -41 -52 2 -51 2 -3 -75 c-4 -95 15 -359 30 -400 8 -26 7 -34 -7
-50 -48 -53 -97 4 -113 130 -8 64 -10 68 -11 28 -1 -52 -9 -78 -22 -78 -5 0
-50 28 -100 63 -49 34 -98 67 -108 72 -10 6 -43 34 -74 64 -76 73 -103 153
-113 334 -6 112 -5 127 9 127 9 0 19 -4 22 -10 7 -12 35 -14 34 -2 0 4 -22 23
-48 44 -51 38 -71 79 -50 104 18 22 42 17 80 -17z m3759 -14 c10 -12 10 -24 2
-53 -12 -41 -17 -76 -37 -262 -21 -187 -33 -232 -75 -266 -19 -16 -37 -31 -40
-35 -3 -3 -21 -14 -40 -25 -30 -16 -100 -64 -135 -92 -5 -4 -41 -27 -80 -51
-38 -24 -85 -57 -103 -72 -58 -51 -101 -31 -83 38 13 51 43 380 39 434 -2 36
-7 44 -27 49 -54 12 -53 59 2 90 24 13 27 13 46 -10 l20 -25 73 39 c72 39 330
201 377 237 29 23 45 24 61 4z m-2399 -74 c20 -20 65 -53 100 -74 35 -21 114
-68 174 -104 176 -105 209 -123 230 -123 12 0 80 35 152 78 73 42 171 99 219
127 47 27 104 67 125 87 30 29 47 38 73 38 18 0 38 -6 44 -13 8 -9 8 -70 1
-207 -5 -107 -9 -240 -7 -295 3 -97 4 -100 27 -103 14 -2 35 -11 47 -19 22
-14 28 -12 108 36 46 28 87 51 91 51 3 0 32 20 63 43 31 24 84 59 117 77 60
32 95 65 92 85 -3 16 76 18 96 2 22 -15 23 -30 8 -157 -6 -52 -16 -158 -22
-235 -6 -77 -16 -152 -22 -167 -9 -19 -77 -70 -232 -171 -121 -80 -236 -159
-256 -176 -41 -35 -51 -37 -68 -17 -9 10 -9 49 -2 147 5 74 13 191 16 262 l6
127 -38 35 c-21 19 -44 35 -52 35 -16 0 -94 -44 -120 -67 -9 -8 -56 -37 -106
-65 -49 -28 -115 -67 -145 -87 -30 -20 -80 -51 -111 -69 -31 -18 -62 -39 -69
-47 -16 -20 -74 -19 -91 1 -7 8 -26 22 -43 31 -17 9 -94 55 -171 103 -77 48
-158 98 -181 111 -22 13 -66 41 -97 62 -31 20 -62 37 -69 37 -7 0 -32 -17 -55
-38 l-42 -39 6 -224 c3 -123 9 -231 14 -240 12 -24 -13 -64 -42 -67 -20 -2
-32 5 -52 32 -15 19 -48 45 -74 58 -27 13 -52 26 -58 31 -72 56 -133 100 -163
119 -20 12 -71 47 -112 77 -41 30 -77 57 -79 58 -10 7 -30 235 -30 345 -1 64
-6 129 -11 143 -15 40 -3 72 32 84 59 21 82 14 124 -34 21 -25 46 -45 56 -45
12 0 18 -6 16 -17 -2 -13 3 -17 15 -15 24 4 91 -40 113 -73 9 -14 23 -25 30
-25 8 0 14 -4 14 -10 0 -5 12 -13 26 -16 14 -4 39 -19 56 -34 54 -50 72 -55
115 -35 21 10 46 18 55 17 10 0 21 5 25 11 4 7 8 142 8 302 l0 289 25 7 c37
10 61 0 101 -40z m-21 -751 c6 -11 57 -50 113 -86 56 -37 120 -79 142 -93 22
-15 77 -49 122 -75 46 -26 86 -52 89 -57 12 -21 67 -7 140 36 41 25 77 45 79
45 2 0 30 17 62 38 32 21 87 56 122 78 35 21 87 58 117 82 57 45 97 54 113 25
8 -17 -10 -433 -24 -529 -6 -40 -9 -43 -176 -155 -93 -63 -211 -139 -261 -170
-50 -31 -97 -64 -103 -73 -7 -9 -24 -16 -38 -16 -34 0 -56 42 -46 90 8 35 14
448 8 455 -12 11 -129 65 -140 64 -11 0 -11 -2 -1 -6 18 -7 58 -48 80 -81 15
-23 17 -52 15 -235 -1 -115 -3 -211 -6 -213 -4 -5 -155 82 -167 95 -9 10 -193
139 -262 183 -31 20 -51 41 -58 62 -6 18 -11 142 -12 284 -2 275 -3 272 54
272 17 0 31 -7 38 -20z"/>
<path d="M5523 8753 c-7 -2 -13 -9 -13 -14 0 -14 26 -10 40 6 10 12 10 15 -1
14 -8 0 -20 -3 -26 -6z"/>
<path d="M5238 8621 c-21 -5 -25 -9 -18 -21 7 -12 12 -12 22 -2 6 6 20 12 29
12 10 0 21 5 24 10 7 11 -14 11 -57 1z"/>
<path d="M6260 8410 c0 -13 11 -13 30 0 12 8 11 10 -7 10 -13 0 -23 -4 -23
-10z"/>
<path d="M6027 8295 c-15 -7 -39 -15 -54 -17 -34 -4 -33 -22 2 -26 16 -2 27 2
31 12 3 9 14 16 24 16 11 0 22 5 25 11 11 17 1 19 -28 4z"/>
<path d="M6425 7530 c-3 -5 3 -10 14 -10 11 0 23 5 26 10 3 6 -3 10 -14 10
-11 0 -23 -4 -26 -10z"/>
<path d="M6320 7470 c0 -5 6 -10 14 -10 8 0 18 5 21 10 3 6 -3 10 -14 10 -12
0 -21 -4 -21 -10z"/>
<path d="M3697 7889 c8 -8 16 -8 30 0 16 9 14 10 -11 11 -22 0 -27 -3 -19 -11z"/>
<path d="M7100 8060 c-25 -16 -49 -32 -55 -37 -5 -4 -21 -14 -35 -21 -63 -33
-80 -44 -80 -53 0 -5 -9 -9 -19 -9 -11 0 -23 -4 -26 -10 -10 -16 31 -11 45 5
7 8 18 15 24 15 16 0 133 60 181 93 22 15 45 27 52 27 6 0 15 5 18 10 13 22
-62 7 -105 -20z"/>
<path d="M6815 7899 c-11 -5 -33 -13 -49 -19 -27 -10 -28 -12 -13 -27 15 -15
19 -14 51 10 19 15 39 27 45 27 5 0 13 5 16 10 8 12 -23 12 -50 -1z"/>
<path d="M4692 7178 c17 -27 68 -63 136 -98 26 -13 54 -29 62 -36 8 -7 56 -33
107 -59 50 -25 106 -59 122 -74 36 -33 35 -27 32 -306 -2 -168 5 -222 26 -202
4 4 10 108 15 230 4 122 9 234 12 248 6 33 -6 44 -102 93 -40 20 -112 61 -160
90 -80 48 -247 136 -259 136 -3 0 1 -10 9 -22z"/>
<path d="M3702 6208 c6 -18 28 -21 28 -4 0 9 -7 16 -16 16 -9 0 -14 -5 -12
-12z"/>
<path d="M5100 6092 c0 -4 9 -13 20 -20 19 -12 20 -23 20 -226 0 -140 4 -225
12 -243 l11 -28 8 40 c4 22 8 134 9 250 1 189 0 210 -16 222 -19 14 -64 18
-64 5z"/>
<path d="M4384 5774 c9 -8 16 -20 16 -25 0 -5 5 -9 10 -9 18 0 11 29 -9 40
-28 15 -35 12 -17 -6z"/>
<path d="M4830 5493 c0 -5 18 -18 40 -31 47 -26 54 -16 10 16 -30 22 -50 28
-50 15z"/>
<path d="M4920 5430 c0 -5 10 -10 23 -10 18 0 19 2 7 10 -19 13 -30 13 -30 0z"/>
<path d="M3930 7617 c0 -7 4 -17 8 -22 11 -16 108 -77 212 -134 194 -107 206
-116 215 -172 10 -55 22 -48 30 17 8 66 6 68 -80 114 -33 18 -97 54 -141 81
-45 27 -85 49 -88 49 -4 0 -24 11 -45 24 -58 37 -111 57 -111 43z"/>
<path d="M3678 6908 c6 -93 22 -108 19 -19 -1 42 -7 76 -13 78 -7 2 -9 -18 -6
-59z"/>
<path d="M2753 3305 c4 -74 8 -140 9 -147 6 -24 -33 -20 -53 6 -22 28 -99 66
-133 66 -35 0 -116 -35 -146 -63 -52 -49 -70 -103 -70 -207 0 -105 18 -158 70
-207 32 -30 102 -62 140 -62 40 -1 113 31 138 61 37 44 56 37 48 -17 l-7 -45
88 0 88 0 0 375 0 375 -89 0 -89 0 6 -135z m-30 -223 c25 -26 27 -34 27 -123
0 -91 -1 -96 -28 -122 -24 -23 -37 -27 -88 -27 -46 0 -64 4 -75 18 -66 81 -66
183 0 265 11 13 29 17 76 17 54 0 64 -3 88 -28z"/>
<path d="M1245 3395 c-27 -8 -58 -14 -67 -15 -32 0 -128 -67 -160 -111 -54
-72 -63 -103 -63 -219 0 -116 9 -147 63 -219 35 -47 119 -105 168 -114 16 -3
59 -11 95 -18 58 -11 77 -10 145 5 119 26 120 27 127 83 3 26 1 56 -4 65 -9
16 -14 15 -58 -12 -45 -28 -55 -30 -142 -30 l-94 0 -47 41 c-27 22 -48 46 -48
54 0 7 -7 18 -15 25 -12 10 -15 37 -15 120 0 83 3 110 15 120 8 7 15 18 15 25
0 8 21 32 48 54 l47 41 94 0 c87 0 97 -2 143 -31 28 -16 53 -27 57 -24 10 11
5 115 -6 126 -14 14 -123 39 -193 45 -31 2 -77 -3 -105 -11z"/>
<path d="M4365 3395 c-27 -8 -58 -14 -67 -15 -32 0 -128 -67 -160 -111 -54
-72 -63 -103 -63 -219 0 -116 9 -147 63 -219 35 -47 119 -105 168 -114 16 -3
59 -11 95 -18 58 -11 77 -10 145 5 119 26 120 27 127 83 3 26 1 56 -4 65 -9
16 -14 15 -58 -12 -45 -28 -55 -30 -142 -30 l-94 0 -47 41 c-27 22 -48 46 -48
54 0 7 -7 18 -15 25 -12 10 -15 37 -15 120 0 83 3 110 15 120 8 7 15 18 15 25
0 8 21 32 48 54 l47 41 94 0 c87 0 97 -2 143 -31 28 -16 53 -27 57 -24 10 11
5 115 -6 126 -14 14 -123 39 -193 45 -31 2 -77 -3 -105 -11z"/>
<path d="M9545 3233 c-53 -11 -113 -39 -138 -65 -42 -42 -59 -37 -55 15 l3 42
-78 0 -78 0 0 -265 0 -265 83 0 c56 0 82 4 81 11 -1 6 -5 70 -9 142 -6 113 -5
135 10 156 9 14 16 32 16 40 0 8 14 26 31 40 24 20 41 26 80 26 28 0 59 -5 71
-11 27 -15 32 -7 33 59 1 52 -8 84 -24 81 -3 -1 -15 -3 -26 -6z"/>
<path d="M1870 3215 c-19 -7 -43 -14 -54 -14 -27 -1 -94 -58 -124 -105 -23
-37 -26 -50 -25 -136 0 -85 3 -100 26 -136 36 -58 92 -98 164 -117 78 -21 112
-21 191 1 69 20 162 89 162 121 0 9 7 26 15 37 16 22 21 169 6 179 -5 3 -12
19 -16 35 -11 49 -92 112 -172 132 -80 21 -125 21 -173 3z m166 -128 c50 -53
50 -201 0 -254 -40 -43 -186 -25 -186 23 0 6 -7 17 -15 24 -22 18 -20 123 3
163 34 60 42 65 112 66 55 1 68 -3 86 -22z"/>
<path d="M3280 3215 c-19 -7 -43 -14 -54 -14 -27 -1 -94 -58 -123 -104 -22
-36 -25 -50 -25 -138 0 -91 2 -101 29 -141 15 -23 46 -54 68 -68 42 -28 146
-60 192 -60 38 0 169 29 216 48 36 16 37 17 37 69 0 64 0 64 -87 19 -23 -12
-58 -16 -137 -16 -104 0 -106 0 -141 31 -20 18 -35 39 -33 48 3 14 26 16 209
12 114 -1 209 1 212 5 8 14 -24 167 -39 185 -8 8 -14 20 -14 25 0 22 -79 76
-138 94 -73 23 -122 24 -172 5z m173 -130 c28 -27 34 -49 16 -61 -6 -3 -60 -7
-121 -8 -131 -2 -143 6 -97 58 30 35 33 36 103 36 62 0 75 -3 99 -25z"/>
<path d="M4969 3211 c-68 -19 -121 -58 -156 -114 -24 -38 -27 -51 -26 -137 0
-85 3 -100 26 -136 36 -58 92 -98 164 -117 78 -21 112 -21 190 1 125 35 193
124 193 252 0 128 -68 217 -193 252 -75 21 -124 21 -198 -1z m187 -124 c25
-27 37 -66 37 -127 0 -61 -12 -100 -37 -127 -40 -43 -186 -25 -186 23 0 6 -7
17 -15 24 -22 18 -20 121 3 163 32 61 42 66 112 66 54 1 68 -3 86 -22z"/>
<path d="M5510 3225 c-1 -3 -1 -123 -1 -267 l0 -263 81 -3 81 -3 -7 155 c-5
102 -3 160 3 168 6 7 14 24 18 37 12 40 45 60 98 61 46 0 49 -2 63 -37 12 -28
15 -71 14 -182 -1 -80 -2 -157 -3 -171 -2 -25 -1 -25 82 -25 l84 0 -2 167 c-2
174 3 198 48 236 19 15 103 16 119 0 9 -9 12 -69 12 -210 l0 -199 88 3 c80 3
87 4 84 23 -1 11 -6 109 -10 218 l-9 197 -29 31 c-32 34 -102 69 -139 69 -37
0 -107 -35 -139 -69 -37 -39 -47 -39 -75 0 -22 30 -96 69 -131 69 -28 0 -103
-37 -129 -65 -36 -39 -53 -33 -49 18 l3 42 -77 3 c-43 2 -78 0 -78 -3z"/>
<path d="M6530 3225 c0 -3 -1 -170 -1 -372 l0 -368 72 -3 c40 -2 77 -1 84 2 8
3 9 22 4 68 -4 34 -9 99 -10 143 -2 69 0 80 16 83 9 2 31 -10 49 -26 33 -33
95 -62 130 -62 47 0 121 38 158 81 21 24 38 51 38 59 0 8 7 28 15 44 8 15 15
54 15 86 0 32 -7 71 -15 86 -8 16 -15 36 -15 44 0 8 -17 35 -38 59 -37 43
-111 81 -160 81 -34 0 -90 -26 -128 -60 -50 -43 -66 -40 -62 13 l3 42 -77 3
c-43 2 -78 0 -78 -3z m366 -138 c20 -22 37 -78 37 -127 0 -49 -17 -105 -37
-127 -17 -19 -32 -23 -82 -23 -66 0 -85 12 -118 77 -31 61 -16 143 37 201 17
18 31 22 81 22 50 0 65 -4 82 -23z"/>
<path d="M7399 3211 c-67 -19 -121 -58 -154 -112 -22 -34 -25 -50 -25 -139 0
-89 3 -105 25 -139 65 -103 202 -150 340 -116 89 23 154 72 185 142 25 56 28
177 5 207 -8 11 -15 28 -15 37 0 32 -93 101 -162 121 -76 21 -125 21 -199 -1z
m187 -124 c25 -27 37 -66 37 -127 0 -61 -12 -100 -37 -127 -40 -43 -186 -25
-186 23 0 6 -7 17 -15 24 -22 18 -20 121 3 163 32 61 42 66 112 66 54 1 68 -3
86 -22z"/>
<path d="M8028 3211 c-32 -9 -70 -29 -87 -45 -28 -27 -31 -36 -31 -90 1 -43 6
-67 18 -81 28 -34 104 -65 158 -65 74 -1 148 -29 152 -58 2 -13 -4 -32 -14
-43 -15 -16 -31 -19 -112 -19 -87 0 -99 2 -142 29 -27 16 -51 27 -54 24 -3 -4
-6 -30 -6 -60 0 -42 4 -55 18 -59 9 -3 26 -9 37 -14 43 -17 146 -40 180 -40
40 0 162 32 191 50 26 16 54 74 54 112 0 76 -70 129 -189 141 -130 14 -177 43
-150 93 12 23 18 24 101 24 78 0 95 -3 143 -29 29 -16 56 -26 59 -23 3 3 6 28
6 56 0 49 -2 52 -32 65 -61 25 -163 50 -203 49 -22 0 -66 -8 -97 -17z"/>
<path d="M8710 3215 c-19 -7 -43 -14 -54 -14 -27 -1 -94 -58 -123 -104 -23
-37 -26 -50 -25 -140 0 -75 4 -103 16 -116 9 -10 16 -22 16 -27 0 -14 49 -58
85 -77 39 -21 135 -47 172 -47 38 0 169 29 216 48 35 15 37 18 37 63 0 26 -4
50 -10 54 -9 6 -15 3 -77 -29 -23 -12 -58 -16 -137 -16 -104 0 -106 0 -141 31
-20 18 -35 39 -33 48 3 14 26 16 204 12 148 -2 203 0 209 9 11 17 -15 168 -31
181 -8 6 -14 16 -14 22 0 25 -77 78 -138 97 -73 23 -122 24 -172 5z m173 -130
c28 -27 34 -49 16 -61 -6 -3 -60 -7 -121 -8 -131 -2 -143 6 -97 58 30 35 33
36 103 36 62 0 75 -3 99 -25z"/>
<path d="M5783 2135 c4 -74 8 -140 9 -147 6 -24 -33 -20 -53 6 -22 28 -99 66
-133 66 -35 0 -116 -35 -146 -63 -52 -49 -70 -103 -70 -207 0 -105 18 -158 70
-207 32 -30 102 -62 140 -62 40 -1 113 31 138 61 37 44 56 37 48 -17 l-7 -45
88 0 88 0 0 375 0 375 -89 0 -89 0 6 -135z m-30 -223 c25 -26 27 -34 27 -123
0 -91 -1 -96 -28 -122 -24 -23 -37 -27 -88 -27 -65 0 -72 5 -107 67 -33 60
-19 152 32 216 11 13 29 17 76 17 54 0 64 -3 88 -28z"/>
<path d="M6138 2263 c-2 -5 -3 -37 -3 -73 l2 -65 81 -3 80 -3 4 68 c2 37 2 71
0 76 -2 4 -39 7 -82 7 -43 0 -80 -3 -82 -7z"/>
<path d="M3645 2221 c-87 -25 -141 -81 -150 -156 -11 -88 0 -137 42 -179 20
-20 43 -36 52 -36 9 0 25 -7 35 -15 11 -8 36 -15 55 -15 20 -1 47 -7 61 -15
14 -8 40 -14 58 -15 38 0 92 -46 92 -77 0 -11 -13 -31 -28 -46 -27 -26 -33
-27 -129 -27 -85 0 -109 4 -157 25 -82 36 -86 35 -86 -28 0 -62 19 -87 66 -87
16 -1 58 -7 94 -15 86 -19 137 -18 218 2 124 30 172 89 172 208 l0 73 -46 46
c-26 27 -55 46 -68 46 -12 0 -31 6 -41 14 -11 8 -45 16 -75 18 -49 4 -97 17
-140 38 -23 11 -26 97 -4 121 15 16 32 19 116 19 90 0 103 -2 155 -30 31 -16
59 -30 64 -30 4 0 7 33 5 72 l-4 73 -33 6 c-166 33 -237 34 -324 10z"/>
<path d="M4236 2158 c13 -95 15 -93 -38 -96 l-48 -3 0 -60 0 -59 48 0 47 0 0
-167 c0 -152 2 -170 20 -194 28 -37 107 -59 210 -59 l85 0 0 60 0 59 -77 3
-78 3 -5 140 c-3 77 -2 144 2 149 4 5 45 8 92 7 l86 -2 0 61 0 61 -85 -2 c-47
-1 -88 1 -92 5 -3 3 -5 37 -4 76 l2 70 -86 0 -87 0 8 -52z"/>
<path d="M4699 1848 c3 -220 5 -232 51 -278 20 -20 98 -50 132 -50 37 0 114
37 136 65 29 37 42 31 42 -20 l0 -45 83 0 82 0 0 270 0 270 -82 0 -83 0 0
-178 0 -178 -33 -32 c-28 -27 -40 -32 -82 -32 -40 0 -55 5 -74 25 -23 25 -23
27 -20 210 l4 185 -80 0 -80 0 4 -212z"/>
<path d="M6140 2058 c0 -2 -1 -122 -1 -268 l-1 -265 83 0 83 0 -4 50 c-3 28
-5 148 -4 268 l1 217 -79 0 c-43 0 -78 -1 -78 -2z"/>
<path d="M6619 2041 c-67 -19 -121 -58 -155 -113 -23 -35 -25 -50 -25 -138 0
-87 2 -103 25 -138 35 -56 91 -96 163 -115 78 -21 112 -21 190 1 125 35 193
124 193 252 0 128 -68 217 -193 252 -75 21 -124 21 -198 -1z m187 -124 c25
-27 37 -66 37 -127 0 -61 -12 -100 -37 -127 -40 -43 -186 -25 -186 23 0 6 -7
17 -15 24 -22 18 -20 121 3 163 32 61 42 66 112 66 54 1 68 -3 86 -22z"/>
</g>
</svg>
