<?xml version="1.0" standalone="no"?>
<!DOCTYPE svg PUBLIC "-//W3C//DTD SVG 20010904//EN"
 "http://www.w3.org/TR/2001/REC-SVG-20010904/DTD/svg10.dtd">
<svg version="1.0" xmlns="http://www.w3.org/2000/svg"
 width="1200.000000pt" height="1391.000000pt" viewBox="0 0 1200.000000 1391.000000"
 preserveAspectRatio="xMidYMid meet">
<metadata>
Created by potrace 1.16, written by Peter Selinger 2001-2019
</metadata>
<g transform="translate(0.000000,1391.000000) scale(0.100000,-0.100000)"
fill="#000000" stroke="none">
<path d="M9855 13720 c-337 -47 -592 -262 -695 -585 -31 -98 -39 -291 -16
-402 62 -305 294 -554 593 -635 104 -28 317 -31 412 -5 169 46 267 103 391
227 76 76 104 113 142 185 62 119 88 215 95 347 7 128 -8 231 -48 342 -111
306 -391 510 -725 529 -49 3 -116 2 -149 -3z"/>
<path d="M5630 12574 c-19 -2 -91 -9 -160 -14 -618 -53 -1278 -236 -1865 -519
-551 -266 -1032 -608 -1471 -1046 -436 -434 -753 -874 -1027 -1425 -94 -188
-237 -517 -237 -544 0 -4 69 63 153 150 245 253 479 449 767 641 1431 954
3512 1350 5515 1049 1066 -160 2073 -531 2850 -1049 294 -196 475 -345 733
-604 105 -106 192 -192 192 -189 0 9 -53 143 -109 274 -299 698 -772 1362
-1332 1868 -913 826 -2040 1310 -3268 1404 -122 9 -654 12 -741 4z"/>
<path d="M945 12412 c-109 -32 -175 -72 -260 -157 -125 -124 -175 -246 -175
-423 0 -173 55 -307 175 -427 266 -266 710 -221 919 94 184 276 115 643 -155
827 -110 75 -178 96 -324 100 -94 3 -133 0 -180 -14z"/>
<path d="M7975 8554 c-77 -18 -150 -36 -162 -39 -23 -5 -23 -6 -23 -220 l0
-215 -140 0 -140 0 0 -125 0 -125 141 0 141 0 -2 -577 c-2 -637 -3 -631 61
-758 45 -87 74 -122 140 -165 91 -59 161 -73 325 -67 91 3 157 10 193 21 l54
18 -7 121 c-4 67 -9 123 -11 126 -2 2 -33 -2 -68 -8 -175 -30 -273 5 -326 118
l-26 56 -3 553 -3 552 231 0 230 0 0 130 0 130 -230 0 -230 0 -2 254 -3 253
-140 -33z"/>
<path d="M4467 8109 c-183 -25 -349 -121 -468 -271 l-37 -47 -7 139 -7 140
-151 0 -150 0 6 -97 c4 -54 7 -619 7 -1255 l0 -1158 165 0 165 0 0 476 0 476
58 -60 c150 -156 347 -221 582 -193 328 40 569 247 673 576 37 118 51 223 50
380 -1 161 -22 281 -72 412 -88 227 -281 408 -493 462 -91 23 -232 32 -321 20z
m124 -269 c231 -43 398 -259 427 -552 30 -296 -68 -566 -248 -686 -171 -115
-399 -111 -569 8 -109 77 -181 194 -202 330 -7 46 -10 148 -7 270 4 177 7 201
30 261 53 143 142 247 264 311 114 60 203 77 305 58z"/>
<path d="M11596 8104 c-122 -29 -254 -121 -320 -221 -15 -23 -38 -68 -52 -100
l-24 -58 0 178 0 177 -147 0 -148 0 -4 -890 -3 -890 166 0 166 0 0 493 c0 553
7 642 60 755 39 84 129 173 212 212 66 30 159 50 241 50 l47 0 0 155 0 155
-67 -1 c-38 0 -94 -7 -127 -15z"/>
<path d="M9560 8099 c-329 -51 -579 -293 -669 -650 -44 -175 -52 -439 -16
-573 42 -160 101 -262 220 -382 124 -125 251 -195 419 -231 104 -22 435 -13
568 16 93 20 235 65 250 80 6 6 -44 237 -54 247 -3 2 -29 -5 -59 -16 -109 -43
-209 -61 -374 -67 -189 -7 -243 2 -353 57 -175 88 -292 262 -309 458 l-6 72
627 0 626 0 0 118 c-1 460 -197 777 -530 857 -83 19 -256 27 -340 14z m202
-220 c134 -28 253 -121 314 -243 37 -77 62 -193 50 -239 l-6 -27 -469 0 -468
0 8 59 c24 172 134 327 284 401 111 55 193 69 287 49z"/>
<path d="M617 7178 c-3 -601 -9 -935 -16 -978 -18 -103 -48 -193 -81 -239 -57
-78 -220 -161 -319 -161 -59 0 -60 -2 -42 -135 l16 -120 75 2 c144 5 315 65
436 156 102 75 196 239 246 425 24 93 24 73 21 1145 l-3 817 -164 0 -165 0 -4
-912z"/>
<path d="M2728 7498 c-3 -576 -4 -595 -25 -649 -91 -241 -342 -365 -575 -284
-65 23 -143 95 -179 166 -62 123 -62 128 -66 762 l-4 577 -170 0 -169 0 0
-522 c0 -548 8 -708 40 -835 60 -232 211 -393 420 -444 31 -8 108 -14 175 -14
137 0 224 21 332 81 68 38 170 127 213 186 l28 38 6 -31 c3 -18 6 -51 6 -74 0
-23 3 -70 6 -104 l7 -61 150 0 150 0 -8 53 c-4 28 -6 433 -6 900 l2 847 -165
0 -165 0 -3 -592z"/>
<path d="M5570 8072 c0 -4 151 -380 335 -836 184 -455 337 -842 340 -859 5
-25 -4 -52 -38 -122 -103 -210 -281 -383 -476 -461 -42 -17 -69 -34 -67 -41 3
-6 21 -68 42 -137 29 -101 40 -126 55 -126 34 0 177 57 245 97 147 89 279 225
385 401 69 113 192 369 284 592 86 209 575 1476 575 1490 0 6 -69 10 -174 10
l-174 0 -82 -237 c-45 -131 -147 -436 -227 -678 -80 -242 -149 -448 -152 -458
-4 -13 -21 28 -48 118 -22 75 -135 388 -249 696 l-209 559 -182 0 c-101 0
-183 -4 -183 -8z"/>
<path d="M876 5367 c22 -74 120 -301 208 -482 206 -423 423 -758 733 -1130
129 -156 454 -484 613 -619 353 -301 724 -544 1145 -751 571 -281 1131 -445
1794 -526 242 -30 786 -37 1046 -15 1158 100 2182 523 3080 1272 162 135 467
438 608 604 354 417 646 883 857 1365 47 107 120 291 120 300 0 3 -91 -87
-202 -199 -316 -316 -601 -535 -1001 -770 -1418 -830 -3360 -1153 -5242 -870
-1120 168 -2190 577 -2972 1136 -226 161 -373 287 -586 500 -115 114 -205 198
-201 185z"/>
<path d="M1790 2153 c-381 -61 -679 -291 -820 -633 -57 -139 -74 -230 -74
-400 -1 -131 3 -169 23 -244 120 -459 494 -769 956 -793 678 -35 1197 557
1080 1230 -73 422 -410 759 -832 832 -78 14 -271 18 -333 8z"/>
</g>
</svg>
