<?xml version="1.0" standalone="no"?>
<!DOCTYPE svg PUBLIC "-//W3C//DTD SVG 20010904//EN"
 "http://www.w3.org/TR/2001/REC-SVG-20010904/DTD/svg10.dtd">
<svg version="1.0" xmlns="http://www.w3.org/2000/svg"
 width="774.000000pt" height="322.000000pt" viewBox="0 0 774.000000 322.000000"
 preserveAspectRatio="xMidYMid meet">
<metadata>
Created by potrace 1.10, written by Peter Selinger 2001-2011
</metadata>
<g transform="translate(0.000000,322.000000) scale(0.050000,-0.050000)"
fill="#000000" stroke="none">
<path d="M1974 6126 c-10 -17 -132 -325 -407 -1026 -186 -475 -229 -540 -357
-540 -61 0 -70 -6 -70 -50 l0 -50 260 0 260 0 0 50 c0 40 -10 50 -50 50 -56 0
-138 70 -124 107 4 12 34 93 66 178 l57 155 341 0 340 0 77 -191 c87 -218 81
-249 -49 -249 -70 0 -78 -5 -78 -50 l0 -50 330 0 330 0 0 50 c0 47 -7 50 -99
50 -123 0 -78 -83 -434 810 -300 754 -344 838 -393 756z m138 -666 c76 -192
141 -357 145 -365 3 -8 -129 -15 -295 -15 -167 0 -302 8 -302 18 0 10 57 165
127 345 70 180 133 344 141 365 20 58 33 33 184 -348z"/>
<path d="M300 6027 c0 -44 7 -47 119 -47 65 0 141 -9 170 -20 l51 -19 0 -1001
0 -1001 -51 -19 c-29 -11 -105 -20 -170 -20 l-119 0 0 -62 c0 -49 7 -60 32
-50 17 7 413 12 880 12 l848 0 0 75 c1 41 18 228 40 415 22 187 40 347 40 355
0 26 -80 16 -82 -10 -26 -398 -165 -628 -425 -705 -127 -38 -633 -42 -669 -6
-42 42 -34 1983 9 2019 21 17 100 29 220 34 181 7 187 8 187 54 l0 46 -540 -1
-540 -1 0 -48z"/>
<path d="M6380 6028 c0 -45 7 -48 107 -48 210 0 204 6 566 -545 181 -274 326
-505 323 -512 -15 -35 -567 -838 -604 -880 -65 -72 -179 -122 -312 -136 -155
-16 -189 -107 -40 -107 93 0 91 10 39 -177 -114 -413 -211 -469 -825 -480
-305 -5 -423 0 -445 18 -24 20 -29 110 -29 521 l0 498 175 -1 c385 -3 467 -49
481 -268 8 -120 13 -131 53 -131 l45 0 0 440 0 440 -47 0 c-43 0 -47 -9 -47
-99 0 -233 -70 -281 -415 -281 l-245 0 0 449 c0 551 -52 498 478 487 588 -13
691 -82 762 -511 20 -121 30 -145 62 -145 46 0 46 -21 -1 325 -22 157 -42 317
-45 355 l-6 70 -780 3 -780 4 -26 326 c-15 180 -31 347 -36 372 l-9 45 -1019
0 c-561 0 -1020 -2 -1021 -5 -10 -91 -58 -661 -59 -700 0 -40 10 -55 37 -55
32 0 39 22 51 149 28 305 109 445 283 489 120 30 514 29 545 -2 27 -27 35
-1927 8 -1970 -28 -45 -127 -66 -305 -66 -177 0 -179 -1 -179 -49 l0 -50 640
-5 640 -6 0 53 0 53 -212 7 c-316 10 -288 -92 -288 1045 0 1133 -35 1019 311
1009 395 -11 480 -76 529 -405 39 -261 48 -239 -95 -234 -121 5 -125 3 -125
-44 0 -47 7 -50 138 -57 220 -13 202 82 202 -1038 l0 -977 -44 -31 c-29 -20
-89 -31 -170 -31 -121 0 -126 -2 -126 -50 l0 -50 967 0 966 0 54 335 c30 184
59 356 64 381 10 46 12 46 290 40 l279 -6 0 53 c0 44 -11 55 -67 65 -80 15
-138 73 -138 136 1 46 483 795 508 789 22 -5 557 -820 557 -849 0 -29 -117
-84 -179 -84 -31 0 -41 -13 -41 -55 l0 -55 460 0 460 0 0 55 c0 53 -3 55 -111
55 -186 0 -195 9 -606 626 l-376 564 234 340 c337 490 404 547 644 549 66 1
75 7 75 51 l0 50 -400 0 -400 0 0 -50 c0 -40 10 -50 52 -50 55 0 168 -97 168
-145 0 -30 -409 -638 -429 -637 -22 2 -451 656 -451 689 0 39 99 93 169 93 40
0 51 10 51 47 l0 48 -470 1 -470 0 0 -48z"/>
</g>
</svg>
