<?xml version="1.0" standalone="no"?>
<!DOCTYPE svg PUBLIC "-//W3C//DTD SVG 20010904//EN"
 "http://www.w3.org/TR/2001/REC-SVG-20010904/DTD/svg10.dtd">
<svg version="1.0" xmlns="http://www.w3.org/2000/svg"
 width="732.000000pt" height="867.000000pt" viewBox="0 0 732.000000 867.000000"
 preserveAspectRatio="xMidYMid meet">
<metadata>
Created by potrace 1.10, written by Peter Selinger 2001-2011
</metadata>
<g transform="translate(0.000000,867.000000) scale(0.100000,-0.100000)"
fill="#000000" stroke="none">
<path d="M3335 8615 c-22 -8 -48 -15 -57 -15 -23 0 -145 -54 -200 -88 -121
-76 -243 -193 -310 -299 -24 -38 -49 -77 -56 -88 -6 -11 -15 -27 -18 -35 -3
-8 -13 -31 -21 -50 -35 -79 -42 -96 -46 -120 -3 -14 -10 -38 -15 -55 -47 -136
-54 -286 -41 -830 12 -474 7 -697 -17 -754 -8 -18 -14 -44 -14 -57 0 -13 -6
-38 -14 -56 -8 -18 -21 -51 -29 -73 -8 -22 -18 -47 -21 -55 -3 -8 -10 -22 -15
-30 -5 -8 -12 -22 -15 -30 -4 -8 -15 -28 -25 -45 -11 -16 -29 -48 -41 -70 -12
-22 -35 -56 -51 -76 -16 -20 -29 -41 -29 -46 0 -4 -10 -19 -23 -33 -13 -14
-37 -45 -55 -70 -18 -25 -53 -70 -78 -100 -57 -70 -179 -246 -204 -295 -15
-29 -34 -59 -42 -65 -4 -3 -12 -17 -18 -30 -5 -14 -19 -38 -30 -55 -11 -16
-22 -37 -26 -45 -3 -8 -9 -22 -14 -30 -5 -8 -19 -35 -30 -60 -12 -25 -26 -52
-31 -60 -5 -8 -12 -22 -15 -30 -10 -26 -36 -84 -50 -113 -8 -16 -14 -35 -14
-42 0 -7 -6 -26 -14 -42 -19 -39 -37 -93 -43 -128 -3 -16 -9 -35 -14 -41 -5
-6 -13 -31 -19 -55 -5 -24 -14 -66 -20 -94 -33 -152 -40 -188 -47 -275 -19
-235 -1 -453 48 -577 11 -30 -27 -75 -131 -152 -88 -66 -100 -73 -160 -101
-25 -12 -52 -26 -60 -31 -8 -5 -21 -11 -27 -14 -50 -20 -75 -35 -119 -76 -44
-39 -70 -76 -96 -133 -23 -48 -24 -204 -3 -291 8 -33 14 -104 15 -157 0 -93
-4 -110 -42 -178 -9 -17 -9 -17 -32 -87 -27 -80 -15 -214 25 -283 5 -8 13 -24
18 -36 13 -30 95 -107 133 -125 18 -8 51 -24 72 -35 35 -17 60 -19 215 -17
128 1 189 -2 225 -13 27 -8 67 -14 88 -14 22 0 49 -5 61 -12 12 -6 40 -15 62
-19 45 -8 97 -25 137 -45 14 -8 34 -14 45 -14 10 0 27 -7 37 -15 11 -8 28 -15
37 -15 10 0 31 -7 48 -15 17 -8 45 -22 62 -30 17 -8 38 -15 48 -15 9 0 26 -7
37 -15 10 -8 30 -15 44 -15 14 0 36 -7 50 -15 37 -21 276 -21 327 1 85 36 111
50 165 92 53 39 137 136 150 173 7 17 110 49 160 49 18 0 62 8 98 16 95 24
663 24 763 0 38 -9 88 -16 111 -16 24 0 60 -7 79 -15 20 -8 56 -15 80 -15 36
0 47 -5 65 -30 12 -16 22 -34 22 -40 0 -33 146 -200 176 -200 6 0 17 -7 24
-15 19 -22 531 -22 550 0 7 8 17 15 22 15 21 0 99 70 272 243 99 98 218 208
265 243 47 35 91 67 96 71 21 16 141 73 153 73 8 0 26 6 40 14 15 7 47 23 72
34 108 50 186 149 235 299 27 83 14 233 -26 303 -5 8 -13 24 -18 35 -5 11 -33
45 -63 77 -55 59 -74 83 -84 108 -31 81 -49 143 -63 215 -4 22 -13 50 -19 62
-7 12 -12 30 -12 41 0 11 -7 25 -15 32 -8 7 -15 20 -15 28 0 9 -16 32 -35 52
l-36 36 11 90 c34 273 37 389 15 538 -8 55 -15 115 -15 135 0 34 -19 138 -41
226 -6 22 -14 60 -19 85 -4 25 -13 60 -19 78 -25 74 -33 99 -41 131 -5 18 -13
38 -19 44 -6 6 -11 20 -11 30 0 10 -6 31 -13 45 -8 15 -21 43 -29 62 -27 64
-50 115 -59 130 -5 8 -12 22 -15 30 -14 34 -47 97 -65 125 -10 17 -23 39 -29
50 -6 11 -19 34 -30 50 -11 17 -24 39 -30 50 -38 74 -232 346 -289 404 -9 9
-29 33 -46 53 -16 19 -67 75 -112 124 -81 89 -143 166 -156 194 -4 8 -16 29
-27 45 -11 17 -22 37 -26 45 -3 8 -10 22 -15 30 -5 8 -12 22 -15 30 -3 8 -11
29 -18 45 -23 53 -46 132 -46 155 0 12 -7 47 -16 77 -14 46 -15 92 -11 282 4
124 10 273 15 331 8 82 6 148 -8 301 -10 108 -23 206 -29 217 -6 11 -11 35
-11 52 0 17 -5 41 -12 53 -6 12 -15 38 -19 57 -8 40 -28 98 -40 120 -5 8 -12
22 -15 30 -35 96 -124 230 -209 316 -90 91 -144 131 -235 175 -25 12 -57 28
-72 35 -14 8 -35 14 -46 14 -11 0 -36 7 -55 15 -20 8 -60 15 -89 15 -77 0
-188 -12 -188 -20 0 -3 21 -16 48 -27 26 -11 75 -32 108 -47 34 -14 65 -26 70
-26 28 0 180 -71 249 -115 179 -117 303 -308 379 -584 46 -167 50 -226 48
-703 -3 -486 1 -541 54 -703 57 -176 152 -324 358 -554 217 -243 358 -446 505
-724 116 -221 221 -537 261 -787 6 -41 16 -95 21 -120 9 -49 8 -334 -2 -344
-12 -12 -38 6 -62 43 -37 56 -129 153 -191 200 -71 55 -83 87 -95 257 -23 298
-98 560 -210 728 -50 74 -123 136 -162 136 -37 0 -36 -9 1 -39 17 -13 30 -28
30 -34 0 -5 16 -44 36 -86 20 -42 44 -94 55 -117 10 -22 19 -46 19 -53 0 -7 6
-25 14 -39 18 -36 46 -125 46 -147 0 -10 6 -38 14 -64 24 -75 39 -205 45 -384
l6 -169 50 -29 c28 -16 57 -32 67 -36 66 -31 238 -245 238 -298 0 -5 7 -23 15
-39 9 -16 16 -50 18 -75 2 -41 0 -46 -21 -49 -30 -5 -72 23 -72 48 0 80 -167
245 -320 316 -113 53 -133 58 -241 62 -86 3 -108 0 -119 -12 -7 -9 -18 -16
-25 -16 -16 0 -83 -73 -95 -103 -5 -12 -11 -39 -15 -60 -7 -41 -31 -63 -82
-73 -59 -12 -125 -95 -162 -204 -18 -53 -41 -285 -47 -480 -6 -208 -28 -337
-79 -480 -29 -81 -37 -107 -45 -135 -24 -83 -37 -106 -75 -125 -22 -11 -47
-20 -56 -20 -9 0 -22 -7 -29 -15 -7 -8 -22 -15 -34 -15 -12 0 -31 -7 -42 -15
-10 -8 -30 -15 -44 -15 -14 0 -34 -7 -44 -15 -11 -8 -29 -15 -40 -15 -12 0
-41 -6 -66 -14 -136 -43 -423 -74 -525 -56 -27 5 -73 9 -101 9 -28 1 -68 8
-87 16 -20 8 -47 15 -61 15 -13 0 -39 8 -58 17 -18 9 -45 22 -60 30 -14 7 -32
13 -40 13 -14 0 -48 53 -48 76 0 28 -102 185 -160 245 -65 67 -71 91 -27 99
29 5 127 84 127 102 0 6 7 19 16 29 23 25 23 193 0 218 -9 10 -16 23 -16 30 0
37 -223 262 -281 283 -10 4 -19 12 -19 18 0 5 -6 10 -14 10 -8 0 -16 7 -20 15
-3 8 -10 15 -17 15 -6 0 -28 12 -48 27 -20 16 -44 33 -53 38 -9 6 -56 37 -103
70 -48 33 -94 65 -104 70 -10 6 -31 20 -47 33 -16 12 -45 34 -64 47 -60 44
-138 126 -170 179 -61 104 -80 143 -80 167 0 11 -5 30 -12 42 -23 42 -34 213
-23 362 6 77 15 147 20 155 5 8 12 32 16 55 4 22 12 56 19 75 20 55 42 113 51
135 34 83 51 122 59 137 6 10 10 24 10 32 0 7 7 19 15 26 8 7 15 21 15 32 0
11 14 33 30 50 17 17 29 32 26 35 -4 4 -69 -11 -102 -24 -23 -9 -16 11 34 99
49 85 101 158 253 359 47 63 106 146 132 185 54 82 157 280 157 302 0 8 8 29
19 46 10 17 26 76 36 131 21 124 37 177 52 182 14 5 83 -84 83 -107 0 -9 -22
-43 -50 -74 -27 -31 -52 -67 -54 -79 -2 -12 -9 -93 -15 -180 -23 -321 -73
-473 -239 -734 -40 -62 -108 -184 -153 -273 -45 -88 -84 -160 -88 -160 -3 0
-6 46 -7 102 0 57 -4 122 -8 145 l-9 43 -23 -23 c-13 -12 -24 -33 -24 -46 0
-14 -6 -32 -14 -40 -13 -15 -22 -51 -46 -171 -6 -30 -16 -75 -22 -100 -5 -25
-12 -114 -15 -198 -6 -156 9 -309 43 -428 8 -28 14 -62 14 -77 0 -14 4 -28 9
-31 5 -3 12 -21 15 -41 8 -39 21 -52 40 -36 10 8 16 58 21 173 4 89 13 182 21
207 8 25 14 59 14 75 0 27 19 103 42 171 5 17 14 46 18 65 12 49 40 123 51
135 5 5 9 17 9 26 0 10 6 30 14 46 8 15 22 46 32 68 9 22 21 47 26 55 4 8 11
22 14 30 3 8 10 22 15 30 5 8 20 38 35 65 36 69 45 85 74 125 26 36 42 61 60
95 6 11 19 34 30 50 39 61 81 157 103 235 9 30 23 80 31 111 9 31 16 70 16 87
0 18 7 74 16 124 11 65 15 128 12 210 -4 88 -2 121 8 129 9 7 15 6 21 -3 12
-20 98 -88 112 -88 6 0 11 -5 11 -10 0 -6 8 -13 18 -17 22 -8 94 -63 105 -80
4 -7 13 -13 19 -13 5 0 27 -13 47 -29 20 -15 63 -43 96 -61 58 -33 63 -33 181
-34 95 0 131 4 165 18 77 31 113 49 157 78 24 15 46 28 49 28 3 0 22 14 43 30
21 17 41 30 45 30 4 0 24 12 44 28 44 33 62 44 126 77 28 14 64 35 80 45 17
11 37 23 45 26 8 4 25 16 37 26 17 16 25 18 42 9 17 -10 21 -21 21 -62 0 -28
5 -60 12 -72 6 -12 15 -38 19 -57 9 -43 27 -96 45 -133 8 -16 14 -36 14 -46 0
-9 7 -26 15 -37 8 -10 15 -27 15 -37 0 -11 6 -31 13 -45 8 -15 22 -45 31 -67
10 -22 25 -56 33 -75 9 -19 22 -51 31 -70 8 -19 19 -42 24 -50 4 -8 11 -22 14
-30 10 -27 36 -85 45 -100 5 -8 12 -22 15 -30 3 -8 10 -22 15 -30 5 -8 12 -22
15 -30 9 -24 65 -144 75 -160 5 -8 12 -22 15 -30 3 -8 10 -22 15 -30 5 -8 12
-22 15 -30 12 -29 96 -205 105 -220 5 -8 12 -22 15 -30 5 -14 15 -37 51 -118
9 -20 23 -53 31 -72 8 -19 21 -48 28 -63 8 -16 14 -36 14 -46 0 -9 7 -26 15
-37 8 -10 15 -29 15 -42 0 -13 5 -33 12 -45 6 -12 15 -42 19 -67 26 -165 27
-170 44 -170 8 0 17 12 20 28 3 15 10 46 15 70 6 23 10 118 10 210 0 155 -11
271 -41 432 -6 30 -15 78 -20 106 -5 28 -16 64 -24 80 -8 16 -15 43 -15 61 0
23 -5 33 -21 38 -11 4 -22 5 -23 3 -15 -24 -26 -69 -26 -112 0 -63 -9 -116
-20 -116 -21 0 -119 188 -283 545 -152 330 -176 390 -253 625 -45 135 -52 149
-101 201 -29 31 -53 64 -53 75 0 10 9 34 20 52 61 99 41 181 -70 285 -36 35
-70 69 -74 75 -4 6 13 41 38 78 64 93 78 144 83 309 5 151 -7 223 -57 327 -33
72 -139 181 -202 209 -73 33 -210 34 -280 2 -51 -23 -141 -87 -174 -124 -68
-76 -150 -231 -168 -319 -3 -14 -11 -33 -19 -44 -12 -17 -15 -14 -39 35 -15
30 -34 77 -44 104 -39 109 -153 230 -246 261 -89 29 -217 0 -268 -61 -7 -9
-26 -23 -41 -31 -27 -13 -28 -13 -39 20 -8 26 -7 50 5 107 8 41 21 99 27 129
16 77 92 249 148 334 109 165 251 265 500 351 143 49 270 99 270 106 0 7 -141
19 -215 19 -27 -1 -68 -7 -90 -15z m660 -990 c17 -11 39 -28 51 -40 29 -28 84
-129 84 -155 0 -12 7 -35 16 -51 30 -58 9 -319 -34 -422 -7 -16 -12 -33 -12
-38 0 -5 -7 -9 -16 -9 -20 0 -101 37 -109 50 -3 5 2 27 12 47 14 29 18 62 18
143 -1 125 -15 170 -71 217 -34 28 -47 33 -95 33 -49 0 -59 -4 -88 -32 -50
-49 -107 -173 -96 -209 3 -9 -1 -22 -9 -28 -12 -10 -22 -9 -48 3 -19 9 -54 20
-78 24 -49 9 -48 8 -30 82 22 87 44 155 57 171 7 8 13 23 13 31 0 9 7 18 15
22 8 3 15 12 15 20 0 18 106 126 124 126 8 0 19 6 26 14 25 31 207 31 255 1z
m-948 -89 c106 -86 163 -205 180 -371 5 -50 4 -51 -38 -78 -59 -39 -73 -33
-80 33 -3 30 -13 71 -22 91 -18 41 -74 99 -95 99 -30 0 -81 -42 -101 -84 -31
-63 -29 -179 4 -252 14 -30 25 -60 25 -67 -1 -13 -66 -47 -91 -47 -23 0 -67
141 -80 255 -11 97 -1 253 17 280 8 11 14 28 14 38 0 39 81 115 129 120 49 5
122 -4 138 -17z m832 -343 c9 -29 10 -60 2 -128 -6 -49 -11 -96 -11 -102 0
-18 -45 -16 -83 3 -86 44 -116 86 -82 114 8 7 35 43 60 81 38 58 50 69 74 69
23 0 30 -6 40 -37z m-495 -42 c25 -27 17 -55 -17 -59 -25 -3 -27 0 -27 31 0
51 15 60 44 28z m-319 -132 c39 -34 43 -53 18 -81 -36 -40 -66 -12 -79 72 -8
51 10 53 61 9z m451 -55 c52 -17 170 -73 219 -105 17 -10 37 -22 45 -25 8 -3
30 -12 47 -20 59 -26 108 -47 143 -62 75 -31 97 -41 142 -62 113 -51 141 -133
72 -204 -20 -21 -46 -42 -58 -47 -36 -17 -81 -42 -86 -48 -3 -3 -39 -23 -80
-44 -90 -45 -104 -54 -151 -89 -20 -16 -40 -28 -44 -28 -4 0 -24 -12 -44 -27
-45 -35 -66 -47 -116 -71 -91 -44 -118 -52 -171 -52 -65 0 -125 30 -246 122
-42 32 -79 58 -82 58 -5 0 -94 62 -141 98 -5 4 -23 16 -40 26 -49 32 -112 105
-119 138 -14 72 4 107 81 149 43 23 101 55 153 84 19 11 39 26 43 33 4 6 13
12 18 12 6 0 46 27 89 60 43 33 83 60 87 60 5 0 14 5 21 12 17 17 102 46 138
47 17 1 53 -6 80 -15z m-748 -167 c29 -27 28 -48 -6 -80 -47 -45 -60 -32 -54
58 4 61 12 64 60 22z m-1025 -2474 c7 -156 34 -302 74 -395 47 -111 151 -255
238 -330 57 -50 59 -51 215 -156 255 -171 359 -248 438 -326 129 -127 160
-210 105 -291 -47 -70 -124 -155 -142 -155 -18 0 -61 42 -103 100 -14 19 -74
126 -132 238 -178 341 -279 475 -406 540 -98 50 -192 41 -290 -28 -43 -31 -57
-26 -73 28 -57 178 -49 593 15 792 21 67 43 120 49 120 3 0 9 -62 12 -137z
m3449 -464 c77 -26 163 -73 215 -119 54 -47 183 -205 183 -223 0 -17 -229
-142 -297 -162 -56 -17 -160 -19 -200 -4 -39 15 -68 44 -121 123 -25 38 -67
90 -94 115 -26 25 -48 50 -48 57 0 6 19 38 43 70 23 33 53 76 67 96 22 32 54
53 110 72 21 6 75 -3 142 -25z m-341 -326 c0 -5 2 -26 3 -48 2 -22 9 -56 17
-76 21 -53 87 -137 120 -152 8 -4 21 -11 29 -16 30 -18 116 -41 150 -41 42 1
180 36 194 50 6 6 19 10 31 10 12 0 26 5 32 11 12 12 45 32 78 48 11 5 31 21
44 35 19 20 34 26 66 26 45 0 124 -30 145 -54 22 -28 50 -90 50 -113 0 -13 7
-40 15 -60 8 -19 15 -45 15 -57 0 -11 7 -34 15 -50 8 -15 15 -37 15 -47 0 -10
5 -21 11 -24 5 -4 15 -17 20 -28 13 -31 36 -64 93 -135 27 -34 57 -80 68 -103
19 -44 24 -114 9 -124 -5 -3 -12 -18 -16 -33 -11 -54 -108 -138 -215 -189
-125 -59 -155 -74 -185 -94 -16 -10 -37 -22 -45 -26 -58 -26 -197 -155 -426
-394 -92 -96 -163 -139 -266 -159 -73 -15 -150 -4 -210 28 -39 21 -128 102
-128 115 0 6 -6 18 -13 26 -7 9 -21 41 -31 71 -27 85 -17 228 26 355 5 17 13
44 18 60 9 34 28 87 45 130 22 54 37 99 46 143 5 23 13 51 19 61 5 11 10 37
10 58 0 21 5 54 11 73 6 19 15 139 19 265 11 331 38 465 95 465 14 0 25 -3 26
-7z m927 -46 c2 -10 -3 -17 -12 -17 -18 0 -29 16 -21 31 9 14 29 6 33 -14z
m-3795 -43 c23 -15 57 -40 75 -58 35 -32 114 -130 125 -156 4 -8 16 -28 27
-45 10 -16 31 -52 45 -80 14 -27 31 -59 37 -70 23 -42 59 -114 72 -145 3 -8
10 -22 15 -30 5 -8 12 -22 15 -30 4 -8 15 -28 26 -45 11 -16 23 -37 27 -45 8
-18 92 -131 108 -145 7 -5 27 -30 45 -55 18 -25 38 -49 45 -55 16 -14 100
-127 108 -145 4 -8 18 -35 32 -59 14 -24 25 -52 25 -61 0 -9 7 -25 15 -36 10
-13 14 -45 15 -105 0 -77 -3 -93 -31 -145 -38 -75 -97 -130 -183 -172 -65 -32
-72 -33 -165 -30 -102 4 -109 6 -266 74 -38 16 -88 37 -137 57 -48 20 -99 38
-133 46 -17 4 -40 13 -52 19 -12 7 -32 12 -44 12 -11 0 -42 7 -68 15 -73 23
-235 38 -329 32 -159 -12 -255 26 -309 119 -27 47 -30 119 -6 166 60 120 73
171 73 283 0 56 -7 124 -15 155 -8 30 -15 91 -15 136 0 78 1 81 34 115 45 46
63 59 79 59 8 0 20 7 27 15 7 8 19 15 26 15 25 0 138 64 216 122 42 32 107 92
145 134 37 43 78 88 91 102 60 67 133 80 205 36z m2427 -1383 l0 -160 -22 3
c-13 2 -39 10 -58 19 -19 8 -62 20 -95 27 -33 6 -89 18 -125 25 -36 8 -100 19
-143 26 -43 6 -80 16 -83 20 -5 9 35 28 96 47 187 57 275 89 345 125 88 46 85
50 85 -132z m-1351 45 c31 -13 89 -36 129 -51 40 -16 71 -33 69 -39 -4 -12
-93 -44 -125 -45 -13 -1 -58 -12 -99 -26 -46 -16 -80 -22 -85 -17 -8 8 5 146
18 190 5 18 30 15 93 -12z"/>
<path d="M3865 6565 c-55 -29 -110 -59 -122 -67 -26 -15 -152 -77 -206 -101
-49 -22 -197 -23 -235 -3 -15 8 -34 17 -42 20 -8 4 -28 15 -45 26 -16 11 -37
23 -45 27 -8 4 -26 17 -40 29 -99 87 -109 94 -137 94 -57 0 -82 -61 -43 -100
33 -33 220 -170 232 -170 6 0 19 -6 27 -13 9 -7 39 -21 68 -31 61 -21 236 -19
293 4 49 19 169 78 205 100 17 10 53 30 80 45 28 14 57 29 65 34 20 12 81 39
100 44 9 3 22 17 30 31 12 24 12 30 -2 54 -27 44 -67 39 -183 -23z"/>
<path d="M2760 1054 c-8 -8 -13 -36 -13 -61 0 -55 19 -73 78 -73 59 0 78 18
78 73 0 63 -14 77 -78 77 -35 0 -57 -5 -65 -16z"/>
<path d="M2299 1033 c0 -7 0 -636 1 -670 0 -10 44 -13 185 -13 l185 0 6 25 c3
14 3 41 0 60 l-7 34 -121 3 -121 3 3 220 c2 121 4 247 4 280 l1 60 -67 3 c-38
2 -68 -1 -69 -5z"/>
<path d="M4193 863 c-21 -8 -15 -27 22 -76 19 -25 35 -51 35 -57 0 -7 13 -29
29 -49 40 -50 48 -84 24 -109 -22 -23 -40 -50 -52 -79 -6 -11 -15 -24 -20 -28
-6 -3 -11 -13 -11 -21 0 -8 -9 -23 -20 -34 -21 -21 -27 -56 -10 -62 6 -2 36
-1 66 2 46 4 57 9 68 30 7 14 21 39 30 57 9 17 16 36 16 42 0 7 11 24 24 38
l24 26 36 -75 c20 -41 36 -80 36 -85 0 -22 29 -32 93 -34 37 -1 70 1 74 5 8 8
-11 44 -64 123 -24 35 -43 69 -43 76 0 7 -9 20 -20 30 -11 9 -20 24 -20 32 0
8 9 23 20 32 11 10 20 25 20 35 0 9 6 21 13 25 12 8 32 36 44 63 3 8 15 26 25
39 37 48 21 61 -61 52 -51 -6 -54 -8 -82 -56 -15 -27 -28 -59 -29 -71 0 -11
-11 -26 -25 -34 -29 -15 -26 -18 -49 40 -10 25 -22 52 -27 60 -5 8 -13 25 -19
38 -8 18 -17 22 -59 22 -27 0 -55 2 -63 4 -7 3 -19 2 -25 -1z"/>
<path d="M2763 843 c-4 -10 -6 -124 -3 -253 l5 -235 68 -3 67 -3 -2 253 -3
253 -62 3 c-52 2 -63 0 -70 -15z"/>
<path d="M3030 843 c-3 -159 0 -476 5 -483 3 -6 36 -10 72 -10 l65 0 -3 160
-4 160 38 35 c46 42 102 48 133 14 17 -19 19 -38 19 -193 l0 -171 70 0 70 0 1
183 c1 151 -2 189 -15 215 -26 50 -44 71 -79 90 -43 22 -144 23 -162 2 -7 -8
-16 -15 -21 -15 -5 0 -18 -9 -29 -20 -31 -31 -50 -26 -50 15 l0 35 -55 0 c-46
0 -55 -3 -55 -17z"/>
<path d="M3626 852 c-9 -15 4 -376 14 -386 6 -6 10 -17 10 -26 1 -21 30 -52
69 -73 42 -22 143 -24 161 -2 7 8 18 15 25 15 7 0 18 7 25 15 7 8 21 15 31 15
14 0 19 -7 19 -30 0 -30 1 -30 55 -30 30 0 55 3 55 8 1 12 1 476 1 490 -1 10
-19 12 -68 10 l-68 -3 0 -160 c-1 -88 -2 -165 -3 -172 -1 -6 -17 -21 -36 -32
-44 -28 -107 -28 -132 0 -17 19 -18 36 -15 195 l3 174 -71 0 c-38 0 -72 -4
-75 -8z"/>
</g>
</svg>
