<?xml version="1.0" standalone="no"?>
<!DOCTYPE svg PUBLIC "-//W3C//DTD SVG 20010904//EN"
 "http://www.w3.org/TR/2001/REC-SVG-20010904/DTD/svg10.dtd">
<svg version="1.0" xmlns="http://www.w3.org/2000/svg"
 width="780.000000pt" height="840.000000pt" viewBox="0 0 780.000000 840.000000"
 preserveAspectRatio="xMidYMid meet">
<metadata>
Created by potrace 1.10, written by Peter Selinger 2001-2011
</metadata>
<g transform="translate(0.000000,840.000000) scale(0.100000,-0.100000)"
fill="#000000" stroke="none">
<path d="M2810 6413 c0 -9 8 -25 17 -35 32 -36 -23 -44 -72 -11 -32 22 -62 16
-69 -13 -5 -18 -12 -24 -22 -20 -27 10 -152 19 -170 12 -16 -6 -16 -8 1 -25
19 -22 16 -58 -5 -53 -60 14 -124 23 -136 18 -11 -4 -11 -12 -2 -38 6 -18 17
-40 24 -49 8 -8 14 -25 14 -37 0 -18 -6 -22 -34 -22 -19 0 -37 -4 -40 -9 -3
-5 16 -25 42 -45 70 -53 73 -56 70 -74 -2 -11 -15 -18 -36 -20 -17 -2 -32 -7
-32 -11 0 -4 23 -28 50 -54 54 -51 58 -58 35 -77 -20 -17 -19 -36 3 -44 71
-26 91 -61 50 -88 -21 -14 -21 -15 23 -36 25 -12 50 -22 55 -22 11 -1 54 -36
54 -44 0 -4 -12 -11 -26 -16 -31 -12 -24 -26 16 -35 16 -4 32 -11 35 -16 4 -5
15 -9 27 -9 11 0 32 -9 48 -20 21 -15 26 -25 22 -45 -4 -25 -4 -25 73 -25 l77
0 -7 -30 -7 -30 57 0 c65 0 186 24 228 46 16 8 34 14 41 14 23 0 125 101 147
145 l23 45 -25 26 c-13 14 -51 47 -84 72 -33 25 -65 51 -70 57 -25 30 -300
206 -343 219 -12 4 -22 12 -22 17 0 5 -8 9 -19 9 -10 0 -24 7 -31 15 -7 8 -18
15 -26 15 -23 0 -83 45 -84 63 0 22 62 24 80 2 7 -8 20 -15 30 -15 10 0 23 -7
30 -15 7 -8 18 -15 25 -15 14 0 269 -128 320 -161 17 -10 37 -22 45 -26 8 -4
20 -11 25 -15 72 -60 191 -140 213 -144 29 -6 82 26 82 50 0 6 6 18 12 24 7 7
18 36 25 65 20 91 -8 188 -94 318 -47 72 -65 86 -83 63 -13 -15 -40 -19 -40
-6 0 5 -14 27 -32 50 -32 42 -58 54 -58 28 0 -40 -46 -29 -78 18 -25 36 -46
38 -55 5 -8 -28 -33 -23 -81 16 -55 45 -80 47 -71 5 6 -26 4 -30 -14 -30 -11
0 -23 5 -26 11 -4 5 -17 15 -28 20 -12 5 -35 18 -52 28 -38 24 -45 25 -45 4z
m215 -165 c6 -3 35 -9 65 -13 90 -11 201 -52 252 -93 51 -41 98 -127 98 -181
0 -44 -37 -52 -88 -19 -121 80 -243 148 -264 148 -9 0 -34 11 -54 25 -20 14
-43 25 -50 25 -7 0 -28 6 -46 14 -18 8 -47 20 -65 26 -38 14 -53 48 -29 65 16
12 162 15 181 3z m-233 -18 c12 -11 17 -20 11 -20 -18 0 -63 27 -56 33 11 11
23 8 45 -13z m-70 -20 c18 0 28 -5 28 -15 0 -18 -36 -20 -43 -2 -5 12 -46 -68
-47 -90 0 -7 11 -24 25 -39 14 -15 25 -32 25 -38 0 -16 142 -128 157 -124 5 1
22 -11 39 -27 17 -17 69 -55 114 -85 100 -66 180 -140 180 -166 0 -39 -45 -71
-123 -88 -43 -10 -87 -14 -103 -10 -67 16 -194 89 -251 143 -61 59 -153 184
-153 208 0 8 -8 30 -18 51 -10 20 -24 64 -31 97 -7 33 -17 69 -22 81 -9 17 -6
26 15 47 43 43 69 57 108 57 20 0 40 5 44 11 4 8 9 8 17 0 6 -6 24 -11 39 -11z"/>
<path d="M4530 6406 c-61 -34 -107 -56 -118 -56 -7 0 -12 14 -12 30 0 17 -5
30 -11 30 -6 0 -37 -20 -69 -45 l-59 -46 -16 30 c-8 16 -20 33 -26 36 -6 4
-31 -15 -57 -41 l-46 -49 -10 28 c-5 15 -15 27 -20 27 -6 0 -29 -26 -50 -57
-39 -56 -39 -56 -57 -35 -9 12 -21 22 -26 22 -10 0 -80 -79 -97 -110 -45 -79
-55 -103 -71 -166 -20 -78 -17 -95 37 -212 33 -71 82 -70 163 3 27 25 54 45
58 45 5 0 26 13 46 28 20 16 43 32 51 35 8 4 35 19 60 33 60 34 136 74 243
124 48 23 90 46 93 51 3 5 21 9 40 9 44 0 43 16 -2 35 -70 29 -148 13 -299
-59 -38 -19 -86 -41 -105 -50 -19 -8 -77 -40 -129 -70 -78 -46 -97 -53 -114
-45 -17 9 -19 18 -13 57 3 25 14 59 24 76 25 43 105 101 167 121 28 8 63 24
76 33 14 10 44 17 74 18 28 0 74 6 103 12 37 8 60 9 73 2 13 -8 25 -7 40 1 16
8 32 8 58 1 20 -6 45 -11 56 -11 11 0 46 -5 79 -11 42 -8 62 -8 71 0 8 6 16 7
19 2 3 -5 18 -12 33 -15 17 -4 37 -20 52 -41 24 -37 24 -41 3 -176 -25 -160
-175 -346 -342 -423 -141 -65 -350 -36 -350 48 0 26 -9 19 215 185 177 131
245 190 245 213 0 8 7 20 15 27 16 13 21 50 6 50 -5 0 -14 -7 -21 -15 -7 -8
-19 -15 -26 -15 -8 0 -14 -4 -14 -9 0 -5 -10 -13 -22 -17 -23 -7 -167 -92
-184 -109 -6 -5 -27 -19 -47 -30 -20 -11 -37 -23 -37 -27 0 -5 -5 -8 -10 -8
-12 0 -73 -41 -78 -52 -2 -5 -8 -8 -13 -8 -13 0 -133 -87 -177 -128 -48 -45
-41 -84 27 -152 27 -27 54 -50 59 -50 4 0 13 -5 20 -12 29 -29 190 -66 267
-62 22 2 45 3 52 3 7 1 21 11 32 22 23 25 91 41 140 32 33 -6 34 -5 27 23 -4
16 -8 33 -9 38 -1 5 14 13 35 16 52 9 90 37 86 62 -2 17 12 28 76 61 78 40 79
41 57 58 -22 18 -29 59 -10 59 18 0 79 51 79 67 0 7 -7 16 -15 19 -15 6 -21
34 -7 34 4 0 27 18 51 39 49 42 49 66 0 56 -49 -11 -38 30 23 86 42 39 50 50
40 62 -7 8 -22 12 -37 9 -24 -4 -30 3 -26 35 1 7 15 27 32 45 30 33 36 76 10
70 -8 -2 -42 -6 -77 -9 l-62 -6 1 34 2 34 -55 -3 c-30 -2 -69 -10 -87 -18 -39
-19 -52 -13 -45 21 3 20 0 25 -17 25 -12 0 -32 -6 -44 -14 -39 -25 -66 -29
-73 -11 -4 9 1 21 11 29 10 7 15 18 11 24 -9 15 -15 15 -46 -2z"/>
<path d="M3590 5364 c-122 -24 -198 -62 -269 -134 -61 -63 -78 -105 -64 -160
6 -28 58 -87 88 -101 11 -5 40 -21 64 -34 24 -14 50 -25 58 -25 8 0 25 -8 39
-17 21 -13 52 -17 167 -17 124 0 151 3 210 23 37 13 70 28 73 32 3 5 11 9 19
9 19 0 82 44 106 74 31 39 26 123 -10 173 -35 48 -125 121 -171 139 -8 3 -24
10 -34 16 -27 14 -144 38 -181 37 -16 -1 -59 -7 -95 -15z m233 -138 c20 -8 57
-32 82 -53 36 -30 45 -43 45 -70 0 -24 -7 -37 -27 -50 -15 -10 -35 -25 -45
-35 -18 -18 -62 -22 -198 -19 -125 3 -231 40 -263 92 -60 97 250 201 406 135z"/>
<path d="M3035 5290 c-116 -10 -195 -23 -220 -37 -11 -7 -27 -14 -35 -18 -54
-22 -125 -80 -168 -138 -77 -105 -104 -185 -100 -294 3 -70 5 -78 24 -81 38
-5 62 8 226 131 116 86 313 272 377 354 36 48 39 87 6 89 -11 1 -60 -2 -110
-6z m-195 -197 c-1 -15 -49 -63 -64 -63 -8 0 -18 -4 -21 -10 -3 -5 -15 -15
-27 -21 -18 -10 -19 -8 -13 13 9 31 75 87 103 88 12 0 22 -3 22 -7z"/>
<path d="M4137 5263 c-12 -20 57 -106 193 -241 76 -75 269 -232 286 -232 3 0
23 -13 44 -30 21 -16 42 -30 48 -30 5 0 15 -7 22 -15 7 -8 23 -15 36 -15 37 0
47 38 33 129 -33 218 -131 340 -339 422 -39 15 -315 25 -323 12z m384 -180
c16 -10 29 -23 29 -30 0 -7 11 -20 26 -29 29 -20 18 -40 -16 -29 -25 8 -110
82 -110 96 0 15 40 10 71 -8z"/>
<path d="M4065 4856 c-97 -27 -198 -106 -239 -186 -80 -158 -71 -312 29 -489
39 -69 182 -201 218 -201 8 0 20 -7 27 -15 7 -8 20 -15 29 -15 9 0 34 -7 56
-15 81 -29 205 -14 300 37 76 41 141 147 156 256 26 179 -33 360 -157 487 -60
62 -72 70 -156 111 -88 43 -181 53 -263 30z m174 -126 c18 -5 45 -17 60 -27
14 -10 31 -18 36 -18 14 -1 97 -92 123 -136 40 -67 62 -147 62 -228 0 -96 -13
-142 -52 -187 -118 -134 -359 -94 -488 80 -24 34 -43 64 -42 68 1 4 -7 26 -18
50 -14 30 -20 65 -20 118 0 63 5 85 31 140 35 74 52 96 94 118 53 28 156 39
214 22z"/>
<path d="M3100 4833 c-69 -24 -111 -45 -155 -77 -70 -51 -147 -140 -177 -206
-51 -110 -53 -121 -52 -255 1 -143 7 -166 73 -257 36 -50 124 -118 152 -118 9
0 33 -7 52 -15 66 -27 161 -16 267 33 92 43 208 159 252 252 51 109 53 120 53
260 -1 148 -7 169 -73 261 -81 113 -260 168 -392 122z m202 -132 c114 -50 166
-177 139 -337 -37 -211 -236 -372 -414 -334 -66 14 -123 54 -150 105 -12 22
-24 42 -27 45 -10 10 -15 57 -14 135 1 116 36 198 123 286 36 36 81 74 99 83
72 37 180 45 244 17z"/>
<path d="M2413 4550 c-63 -43 -131 -118 -155 -170 -11 -25 -25 -54 -31 -65 -6
-11 -16 -55 -23 -97 -16 -97 0 -205 41 -292 36 -77 59 -98 110 -104 72 -8 107
28 125 126 5 26 13 65 19 87 37 150 41 181 41 315 0 120 -3 146 -20 179 -17
34 -37 52 -58 51 -4 0 -26 -14 -49 -30z m-2 -247 c12 -33 5 -106 -19 -188 -20
-65 -35 -77 -53 -43 -25 47 -10 172 29 236 19 29 30 28 43 -5z"/>
<path d="M4808 4563 c-46 -53 -50 -78 -45 -252 2 -91 10 -184 17 -206 6 -22
19 -65 28 -95 25 -87 80 -198 103 -211 15 -8 28 -8 45 -1 25 12 104 113 104
135 0 7 5 18 11 24 16 16 39 141 39 215 0 67 -16 146 -41 203 -25 58 -128 174
-155 175 -6 0 -17 7 -24 15 -17 20 -63 19 -82 -2z m125 -221 c45 -49 67 -243
31 -273 -39 -32 -70 39 -81 183 -4 55 -2 82 7 93 16 19 23 19 43 -3z"/>
<path d="M3545 3963 c-27 -9 -69 -25 -93 -35 -48 -22 -149 -111 -163 -142 -5
-12 -13 -28 -18 -36 -38 -67 -41 -81 -41 -184 0 -97 3 -111 30 -168 36 -78
124 -173 183 -198 12 -6 29 -14 37 -19 58 -34 95 -41 210 -41 122 0 126 1 239
53 60 27 151 121 177 182 64 147 64 226 3 361 -46 99 -146 179 -281 225 -71
24 -210 25 -283 2z m280 -135 c94 -37 156 -95 181 -172 20 -59 15 -186 -9
-233 -24 -45 -92 -102 -164 -135 -60 -28 -70 -30 -156 -26 -147 7 -223 54
-300 189 -50 85 -32 221 40 294 100 104 267 138 408 83z"/>
<path d="M4678 3833 c-14 -2 -32 -11 -38 -19 -7 -8 -17 -14 -22 -14 -9 0 -102
-70 -165 -124 -38 -32 -140 -169 -171 -228 -74 -146 -99 -278 -69 -373 24 -80
79 -115 180 -115 282 0 565 324 518 595 -21 125 -59 231 -93 261 -18 17 -90
26 -140 17z m65 -161 c10 -10 24 -43 33 -73 39 -128 -13 -288 -127 -393 -127
-118 -258 -151 -302 -76 -41 69 -1 218 93 345 57 77 120 139 180 179 60 40 98
45 123 18z"/>
<path d="M2518 3707 c-20 -17 -44 -46 -52 -64 -22 -44 -20 -161 4 -250 48
-181 138 -303 273 -370 98 -48 127 -56 212 -61 79 -3 81 -3 116 30 52 47 75
125 59 205 -23 114 -27 128 -38 148 -6 11 -13 27 -16 35 -4 8 -15 29 -26 45
-11 17 -23 37 -27 46 -23 50 -168 188 -223 212 -8 4 -22 11 -30 15 -62 35 -87
42 -148 42 -61 0 -70 -3 -104 -33z m171 -112 c105 -37 201 -129 262 -251 68
-135 65 -230 -7 -248 -66 -17 -233 77 -284 159 -12 19 -28 35 -36 35 -9 0 -14
11 -13 33 1 17 -6 50 -14 72 -9 22 -16 68 -17 103 0 54 4 66 25 87 28 29 30
29 84 10z"/>
<path d="M3585 2960 c-49 -3 -100 -12 -112 -18 -12 -7 -34 -12 -48 -12 -15 0
-39 -6 -53 -14 -15 -7 -49 -23 -75 -36 -97 -45 -99 -98 -6 -184 59 -55 71 -63
151 -102 93 -45 212 -63 288 -44 25 6 59 14 75 17 69 12 178 76 251 147 90 87
99 113 53 156 -19 16 -43 30 -54 30 -12 0 -30 7 -41 15 -10 8 -30 15 -44 15
-14 0 -43 6 -65 14 -51 17 -205 25 -320 16z m283 -137 c59 -16 66 -35 29 -75
-39 -42 -129 -70 -232 -71 -98 -1 -150 12 -208 51 -80 54 -22 98 145 111 119
9 192 5 266 -16z"/>
<path d="M5653 2063 c-27 -5 -38 -39 -29 -89 7 -35 8 -35 53 -32 42 3 46 5 57
39 11 31 10 40 -3 57 -18 22 -45 31 -78 25z"/>
<path d="M3201 2031 c-12 -8 -14 -58 -15 -276 l-1 -266 40 3 c33 3 40 7 40 25
0 28 13 40 21 19 3 -9 12 -16 19 -16 7 0 18 -7 25 -15 20 -24 95 -19 131 8 50
36 69 85 69 176 0 93 -8 118 -49 160 -26 26 -38 31 -80 31 -38 0 -55 -5 -70
-21 -12 -13 -26 -19 -35 -16 -13 5 -15 20 -9 97 l6 90 -26 0 c-14 0 -31 2 -39
5 -7 3 -19 1 -27 -4z m218 -277 c12 -19 21 -50 21 -69 0 -19 -9 -50 -21 -69
-18 -30 -27 -36 -55 -36 -53 0 -77 29 -82 98 -4 50 -1 62 19 85 18 20 34 27
61 27 31 0 39 -5 57 -36z"/>
<path d="M1610 1783 c0 -120 -3 -235 -6 -255 l-7 -38 58 0 58 0 -7 105 -7 105
41 0 c46 0 79 -28 80 -66 0 -12 7 -27 15 -34 8 -7 15 -23 15 -37 0 -13 7 -35
16 -48 14 -21 24 -25 63 -25 26 0 50 3 53 6 8 7 -23 84 -34 84 -4 0 -8 11 -8
24 0 13 -7 29 -15 36 -8 7 -15 17 -15 22 0 5 -9 21 -20 35 -26 33 -25 51 3 62
29 11 42 27 56 72 17 51 -5 106 -55 141 -37 26 -45 27 -161 28 l-123 0 0 -217z
m230 112 c18 -22 15 -62 -5 -85 -14 -16 -31 -20 -77 -20 l-58 0 0 60 0 60 64
0 c44 0 67 -5 76 -15z"/>
<path d="M5210 1988 c0 -7 -1 -122 -2 -256 l-3 -242 54 0 54 0 -6 90 -7 90 60
0 c72 0 122 23 156 74 20 29 24 47 24 108 0 81 -8 93 -80 130 -43 22 -250 27
-250 6z m217 -100 c30 -28 30 -74 1 -105 -17 -18 -32 -23 -75 -23 l-53 0 0 75
0 75 52 0 c39 0 57 -5 75 -22z"/>
<path d="M4870 1870 c-11 -11 -20 -30 -20 -41 0 -20 -12 -64 -47 -166 -14 -40
-43 -60 -43 -29 0 13 -9 47 -50 181 l-18 60 -42 3 c-24 2 -47 -1 -51 -5 -10
-10 3 -61 27 -105 8 -14 14 -35 14 -46 0 -11 8 -35 17 -54 9 -18 22 -45 30
-60 7 -14 13 -37 13 -50 0 -12 7 -32 15 -42 19 -25 19 -60 0 -76 -8 -7 -15
-20 -15 -29 0 -9 -7 -27 -16 -39 -14 -21 -14 -23 8 -31 13 -4 40 -6 61 -3 32
4 40 10 52 39 8 20 15 47 15 62 1 14 7 37 15 51 8 14 14 35 15 47 0 12 8 36
17 55 9 18 22 45 30 60 7 14 13 33 13 42 0 15 19 65 46 119 22 46 18 64 -17
71 -45 9 -47 8 -69 -14z"/>
<path d="M2072 1851 c-35 -32 -38 -42 -22 -72 13 -23 33 -25 50 -4 9 10 32 15
75 15 56 0 63 -2 73 -25 14 -30 11 -32 -63 -38 -109 -9 -154 -44 -155 -123 0
-45 4 -54 35 -82 29 -27 42 -32 85 -32 31 0 61 7 77 17 24 16 26 16 38 0 7
-10 26 -17 47 -17 l35 0 -4 118 c-7 202 -10 217 -48 246 -30 23 -43 26 -112
26 -73 0 -81 -2 -111 -29z m177 -200 c8 -14 6 -25 -10 -45 -17 -22 -29 -26
-70 -26 -47 0 -49 1 -49 29 0 36 32 60 82 60 27 1 40 -4 47 -18z"/>
<path d="M2479 1863 c-31 -19 -59 -66 -59 -98 0 -27 54 -95 75 -95 7 0 26 -7
42 -14 15 -8 36 -17 46 -20 10 -3 17 -15 17 -31 0 -24 -3 -25 -59 -25 -40 0
-63 5 -71 15 -7 8 -21 15 -31 15 -16 0 -19 -8 -19 -41 0 -60 26 -78 113 -79
104 0 156 40 157 121 0 35 -5 51 -23 67 -13 12 -30 22 -38 22 -8 0 -23 7 -33
15 -11 8 -27 15 -36 15 -19 0 -50 30 -50 48 0 19 100 15 121 -4 46 -42 71 42
26 84 -19 18 -35 22 -88 21 -39 0 -74 -7 -90 -16z"/>
<path d="M2768 1623 c-2 -142 -2 -263 0 -270 5 -17 22 -21 66 -15 l39 5 -6 88
c-8 100 0 113 44 80 34 -25 100 -28 119 -6 7 8 18 15 26 15 26 0 54 88 54 172
0 87 -15 128 -59 165 -38 33 -112 31 -154 -3 -39 -30 -52 -31 -52 -1 0 18 -6
23 -37 25 l-36 3 -4 -258z m231 131 c12 -19 21 -50 21 -69 0 -19 -9 -50 -21
-69 -18 -31 -26 -36 -56 -36 -26 0 -43 7 -60 27 -22 23 -25 34 -21 83 5 70 28
98 80 99 31 1 39 -4 57 -35z"/>
<path d="M3689 1862 c-66 -44 -93 -102 -92 -191 3 -124 65 -182 196 -180 94 1
131 20 135 72 4 44 -18 59 -47 33 -13 -11 -37 -16 -88 -16 -60 0 -73 3 -91 23
-12 13 -22 26 -22 30 0 4 54 7 119 7 66 0 126 3 135 6 23 9 21 88 -5 140 -32
67 -75 94 -151 94 -43 0 -71 -6 -89 -18z m150 -96 c13 -13 21 -32 19 -43 -3
-15 -15 -18 -86 -21 -79 -3 -82 -2 -82 19 0 64 102 95 149 45z"/>
<path d="M4035 1685 l0 -195 52 0 51 0 -5 120 -6 121 28 29 c22 23 38 30 67
30 l38 0 0 45 0 45 -38 0 c-26 0 -45 -7 -57 -20 -10 -11 -22 -20 -26 -20 -4 0
-11 9 -14 20 -5 16 -15 20 -48 20 l-42 0 0 -195z"/>
<path d="M4340 1878 c0 -2 -2 -89 -3 -195 -3 -213 -7 -201 64 -195 l37 4 -5
121 -5 122 28 27 c17 16 43 28 64 30 34 3 35 5 35 43 0 38 -2 40 -34 43 -24 3
-40 -3 -58 -20 -20 -19 -25 -20 -33 -8 -5 8 -10 18 -10 23 0 6 -80 11 -80 5z"/>
<path d="M5628 1716 c-1 -92 -2 -178 -2 -193 -1 -25 3 -28 39 -34 22 -4 44 -5
50 -3 6 3 10 74 9 197 l-1 192 -47 3 -46 3 -2 -165z"/>
</g>
</svg>
