<?xml version="1.0" standalone="no"?>
<!DOCTYPE svg PUBLIC "-//W3C//DTD SVG 20010904//EN"
 "http://www.w3.org/TR/2001/REC-SVG-20010904/DTD/svg10.dtd">
<svg version="1.0" xmlns="http://www.w3.org/2000/svg"
 width="900.000000pt" height="232.000000pt" viewBox="0 0 900.000000 232.000000"
 preserveAspectRatio="xMidYMid meet">
<metadata>
Created by potrace 1.10, written by Peter Selinger 2001-2011
</metadata>
<g transform="translate(0.000000,232.000000) scale(0.050000,-0.050000)"
fill="#000000" stroke="none">
<path d="M118 4590 c-121 -66 -121 -83 -7 -1020 100 -818 63 -770 589 -770
482 0 399 -80 851 824 414 826 414 828 289 941 l-61 55 -804 -1 c-656 0 -815
-6 -857 -29z m542 -170 c0 -11 -41 -138 -90 -282 l-90 -263 160 9 c188 11 181
33 90 -262 -39 -126 -68 -231 -65 -234 3 -3 132 131 287 298 l282 304 -158 6
c-88 3 -156 13 -152 22 3 9 42 107 86 219 l80 203 312 0 c171 0 317 -6 324
-12 6 -7 -150 -336 -347 -731 l-360 -718 -324 6 -325 5 -83 650 c-46 358 -85
684 -85 725 l-2 75 230 0 c138 0 230 -8 230 -20z"/>
<path d="M2112 3890 c-6 -165 -15 -410 -20 -545 l-8 -245 116 0 117 0 285 475
c156 261 301 499 321 528 59 84 48 95 -86 89 l-123 -6 -202 -382 c-111 -209
-205 -373 -209 -363 -6 18 47 569 67 690 l10 62 -128 -2 -128 -1 -12 -300z"/>
<path d="M3967 4175 c-5 -8 -80 -238 -166 -510 -86 -272 -163 -511 -171 -530
-13 -33 10 -35 334 -35 l348 0 25 85 c14 47 30 96 36 110 8 19 -44 25 -223 25
-186 0 -232 5 -224 26 5 15 66 201 134 414 68 213 128 399 134 413 10 27 -210
30 -227 2z"/>
<path d="M4608 4170 c-35 -98 -68 -197 -68 -204 0 -5 50 -3 110 5 137 17 139
52 -20 -442 -71 -222 -130 -410 -130 -417 0 -6 52 -12 115 -12 l115 1 133 434
133 435 115 0 115 0 34 105 c19 58 29 106 22 107 -105 13 -669 3 -674 -12z"/>
<path d="M5388 4129 c-14 -34 -32 -86 -39 -117 l-14 -56 112 15 c62 7 113 7
113 -1 0 -25 -244 -797 -264 -836 -17 -33 -8 -35 105 -30 l124 6 134 430 135
430 111 -4 112 -4 32 93 c17 51 31 102 31 114 0 14 -109 21 -333 21 l-333 0
-26 -61z"/>
<path d="M6228 4170 c-32 -93 -328 -1048 -328 -1058 0 -8 51 -11 113 -8 l112
6 64 210 64 210 113 6 c135 7 131 23 45 -232 l-68 -204 115 0 116 0 73 228
c85 263 83 248 40 295 -28 32 -29 37 -3 37 74 0 238 424 188 489 -27 35 -632
55 -644 21z m391 -215 c-1 -14 -16 -64 -35 -112 l-34 -86 -115 -5 c-63 -3
-115 -4 -115 -1 0 4 47 140 70 204 5 16 49 25 119 25 76 0 111 -8 110 -25z"/>
<path d="M7951 4180 c-3 -5 -75 -235 -161 -510 -85 -275 -163 -516 -173 -535
-17 -31 -6 -35 101 -35 l120 0 92 295 c51 162 113 358 138 435 l45 140 116 6
c104 6 115 2 105 -30 -6 -20 -69 -218 -140 -441 l-129 -405 118 0 c64 0 117 4
117 10 0 5 68 224 150 487 154 491 168 558 125 573 -36 12 -618 22 -624 10z"/>
<path d="M8680 4180 c0 -11 9 -20 20 -20 11 0 20 -26 20 -59 0 -32 9 -64 20
-71 12 -7 20 16 20 59 0 39 9 71 20 71 11 0 20 9 20 20 0 11 -27 20 -60 20
-33 0 -60 -9 -60 -20z"/>
<path d="M8820 4110 c0 -89 39 -132 41 -45 1 44 2 44 22 -5 l20 -50 28 50 c27
49 28 49 28 5 1 -25 10 -45 21 -45 11 0 20 41 20 90 0 105 -31 117 -68 28
l-26 -63 -22 63 c-32 90 -64 76 -64 -28z"/>
<path d="M3104 4146 c-60 -52 -341 -955 -311 -1002 38 -61 547 -60 615 0 54
49 342 918 328 992 -10 53 -571 62 -632 10z m367 -200 c-7 -19 -55 -167 -106
-330 l-94 -296 -117 0 c-85 0 -115 7 -108 25 5 14 53 162 106 330 l98 305 117
0 c102 0 116 -4 104 -34z"/>
<path d="M7105 4145 c-54 -54 -335 -964 -310 -1004 16 -25 70 -32 287 -37 283
-6 338 7 373 83 50 111 287 901 281 939 -9 63 -571 79 -631 19z m375 -177 c0
-7 -46 -155 -103 -330 l-102 -318 -115 0 -115 0 98 305 c53 168 101 316 106
330 10 25 231 38 231 13z"/>
<path d="M4440 2550 c0 -191 5 -230 30 -230 25 0 30 39 30 230 0 191 -5 230
-30 230 -25 0 -30 -39 -30 -230z"/>
<path d="M5840 2550 c0 -191 5 -230 30 -230 25 0 30 39 30 230 0 191 -5 230
-30 230 -25 0 -30 -39 -30 -230z"/>
<path d="M3500 2691 c0 -18 17 -31 42 -31 48 0 42 47 -9 56 -19 4 -33 -6 -33
-25z"/>
<path d="M6873 2707 c-25 -26 -13 -47 27 -47 22 0 40 13 40 30 0 30 -42 41
-67 17z"/>
<path d="M2840 2550 l0 -150 76 0 c100 0 142 34 157 125 19 115 -30 175 -143
175 l-90 0 0 -150z m165 62 c40 -61 6 -152 -57 -152 -44 0 -48 8 -48 101 0
102 54 129 105 51z"/>
<path d="M4780 2550 l0 -150 75 0 c118 1 179 73 157 186 -18 91 -48 114 -144
114 l-88 0 0 -150z m165 62 c41 -62 0 -152 -69 -152 -30 0 -36 17 -36 101 0
102 54 129 105 51z"/>
<path d="M5256 2654 c-21 -107 12 -244 59 -250 25 -4 45 3 45 15 0 11 -9 21
-20 21 -29 0 -25 135 5 148 20 10 20 14 0 24 -14 6 -25 29 -25 50 0 54 -54 48
-64 -8z"/>
<path d="M6180 2550 l0 -150 76 0 c100 0 142 34 157 125 19 115 -30 175 -143
175 l-90 0 0 -150z m165 62 c40 -61 6 -152 -57 -152 -44 0 -48 8 -48 101 0
102 54 129 105 51z"/>
<path d="M3116 2569 c-39 -85 0 -159 83 -159 37 0 71 11 76 24 5 15 -12 22
-47 20 -29 -2 -58 7 -62 21 -6 17 12 25 52 25 63 0 75 22 50 88 -21 54 -125
41 -152 -19z"/>
<path d="M3336 2509 c38 -135 78 -138 117 -9 33 113 33 120 0 120 -16 0 -35
-29 -43 -65 l-14 -65 -19 65 c-10 36 -30 65 -45 65 -22 0 -21 -20 4 -111z"/>
<path d="M3507 2510 c-2 -81 5 -110 25 -110 21 0 28 30 28 110 0 153 -49 153
-53 0z"/>
<path d="M3616 2569 c-48 -105 72 -229 149 -152 31 31 -2 70 -36 42 -37 -30
-69 -7 -69 51 0 58 32 81 69 51 31 -26 62 5 41 39 -26 43 -130 22 -154 -31z"/>
<path d="M3816 2569 c-39 -85 0 -159 83 -159 37 0 71 11 76 24 5 15 -12 22
-47 20 -29 -2 -58 7 -62 21 -6 17 14 25 62 25 81 0 79 -2 52 69 -27 72 -131
73 -164 0z"/>
<path d="M4034 2608 c-30 -31 -12 -90 36 -112 66 -30 64 -64 -2 -47 -38 9 -50
6 -43 -13 5 -15 39 -26 77 -26 90 0 110 76 29 113 -58 27 -68 59 -16 52 19 -3
40 4 45 15 11 23 -104 39 -126 18z"/>
<path d="M5054 2607 c-26 -25 10 -47 57 -35 70 18 61 -19 -11 -46 -105 -39
-85 -125 28 -123 l88 2 -10 82 c-5 46 -13 94 -17 108 -8 26 -112 35 -135 12z"/>
<path d="M5425 2607 c-44 -18 -5 -48 46 -35 70 18 60 -19 -13 -46 -98 -38 -76
-114 37 -122 l85 -6 0 87 c0 119 -55 162 -155 122z"/>
<path d="M6456 2569 c-39 -85 0 -159 83 -159 37 0 71 11 76 24 5 15 -12 22
-47 20 -29 -2 -58 7 -62 21 -6 17 12 25 52 25 63 0 75 22 50 88 -21 54 -125
41 -152 -19z"/>
<path d="M6676 2569 c-48 -105 72 -229 149 -152 31 31 -2 70 -36 42 -37 -30
-69 -7 -69 51 0 58 32 81 69 51 31 -26 62 5 41 39 -26 43 -130 22 -154 -31z"/>
<path d="M6880 2510 c0 -82 7 -110 28 -110 22 0 28 28 28 110 -1 79 -9 110
-29 110 -19 0 -27 -30 -27 -110z"/>
<path d="M6979 2589 c-24 -29 -19 -40 42 -92 l69 -59 -67 13 c-52 10 -66 7
-59 -14 6 -16 38 -27 78 -27 90 0 110 76 29 113 -58 27 -68 59 -16 52 19 -3
38 4 41 15 9 35 -88 34 -117 -1z"/>
<path d="M7160 2510 c0 -84 7 -110 30 -110 23 0 30 26 30 110 0 84 -7 110 -30
110 -23 0 -30 -26 -30 -110z"/>
<path d="M7284 2596 c-61 -61 -16 -196 66 -196 59 0 90 38 90 110 0 72 -31
110 -90 110 -23 0 -53 -11 -66 -24z m86 -86 c0 -64 -38 -89 -58 -38 -17 45 6
112 35 102 13 -4 23 -33 23 -64z"/>
<path d="M7480 2507 c0 -82 7 -107 30 -107 22 0 30 23 30 90 0 67 8 90 30 90
22 0 30 -23 30 -90 0 -67 8 -90 30 -90 22 0 30 23 30 85 -1 113 -18 135 -106
131 l-74 -2 0 -107z"/>
<path d="M7713 2607 c-30 -30 -10 -89 37 -111 66 -30 64 -64 -2 -47 -38 9 -50
6 -43 -13 5 -15 39 -26 77 -26 96 0 108 74 19 119 -74 39 -79 60 -11 43 37 -9
50 -5 50 18 0 31 -99 44 -127 17z"/>
</g>
</svg>
