<?xml version="1.0" standalone="no"?>
<!DOCTYPE svg PUBLIC "-//W3C//DTD SVG 20010904//EN"
 "http://www.w3.org/TR/2001/REC-SVG-20010904/DTD/svg10.dtd">
<svg version="1.0" xmlns="http://www.w3.org/2000/svg"
 width="675.000000pt" height="675.000000pt" viewBox="0 0 675.000000 675.000000"
 preserveAspectRatio="xMidYMid meet">
<metadata>
Created by potrace 1.10, written by Peter Selinger 2001-2011
</metadata>
<g transform="translate(0.000000,675.000000) scale(0.100000,-0.100000)"
fill="#000000" stroke="none">
<path d="M5453 4049 l-33 -10 0 -465 0 -465 48 3 47 3 -4 236 -3 236 38 29
c58 44 109 64 162 64 39 0 54 -6 80 -29 51 -47 54 -65 50 -311 l-3 -225 48 -3
47 -3 0 245 c0 217 -2 249 -19 288 -25 57 -64 92 -128 112 -49 16 -55 16 -110
0 -32 -10 -78 -32 -102 -51 -24 -18 -48 -30 -54 -26 -6 3 -8 76 -6 192 4 205
6 199 -58 180z"/>
<path d="M1156 4022 c-4 -10 -70 -84 -147 -163 -145 -149 -161 -170 -191 -254
-51 -140 9 -320 139 -418 72 -54 140 -76 233 -77 114 0 196 36 275 122 59 65
78 100 101 190 17 63 17 70 0 140 -15 67 -42 135 -57 148 -3 3 -11 15 -18 28
-16 30 -42 28 -74 -6 -30 -31 -34 -47 -14 -59 21 -13 53 -73 67 -126 15 -57 1
-139 -36 -198 -27 -43 -113 -119 -135 -119 -8 0 -20 -5 -25 -10 -6 -6 -34 -13
-62 -17 -105 -12 -236 66 -286 170 -39 83 -43 136 -15 209 20 55 39 79 150
191 l128 128 3 66 c2 56 0 68 -14 71 -9 2 -19 -5 -22 -16z"/>
<path d="M1955 3970 c-3 -6 -4 -128 0 -273 3 -144 2 -327 -3 -407 -5 -84 -5
-153 0 -163 7 -14 19 -17 51 -15 l42 3 0 150 0 150 75 1 c165 2 275 41 332
117 14 17 32 61 42 95 16 60 17 69 2 136 -24 107 -86 164 -213 199 -71 19
-317 24 -328 7z m321 -98 c64 -22 97 -48 123 -97 27 -50 27 -105 0 -157 -43
-85 -112 -117 -254 -117 l-100 -1 2 192 c1 106 2 194 3 196 0 1 40 2 88 2 58
0 105 -6 138 -18z"/>
<path d="M3034 3971 c-10 -11 -3 -81 9 -82 6 -1 77 -2 155 -3 l144 -1 -2 -355
c-1 -195 -3 -368 -4 -385 -1 -29 0 -30 48 -30 l48 0 -3 335 c-1 184 -3 358 -3
385 l-1 50 145 0 c80 0 151 4 158 8 6 5 12 18 12 30 -1 51 6 50 -360 51 -188
1 -344 -1 -346 -3z"/>
<path d="M1286 3871 c-25 -27 -17 -69 16 -89 26 -15 28 -15 53 8 29 28 32 60
7 83 -25 22 -55 21 -76 -2z"/>
<path d="M3897 3753 c-74 -19 -152 -88 -193 -170 -27 -52 -29 -65 -28 -157 1
-72 6 -110 18 -131 9 -16 16 -34 16 -40 0 -18 74 -92 120 -121 41 -26 54 -28
140 -28 74 -1 103 4 130 18 70 37 115 83 148 150 29 59 32 74 32 158 0 173
-65 271 -214 321 -59 20 -92 20 -169 0z m171 -92 c41 -21 78 -59 105 -108 25
-46 24 -200 -2 -251 -29 -57 -75 -97 -136 -118 -53 -18 -57 -18 -107 0 -64 21
-96 47 -133 104 -26 39 -28 50 -28 141 0 86 3 104 24 137 29 47 44 63 89 91
46 30 135 31 188 4z"/>
<path d="M4450 3760 c-8 -5 -23 -11 -32 -14 -17 -5 -18 -29 -18 -321 l0 -316
48 3 47 3 -4 203 -3 203 37 54 c50 73 94 105 142 105 21 0 49 -7 62 -17 23
-16 25 -15 43 7 30 37 20 70 -27 86 -22 7 -53 14 -68 14 -41 0 -100 -34 -139
-80 -19 -22 -38 -40 -41 -40 -4 0 -7 27 -7 60 0 61 -7 69 -40 50z"/>
<path d="M5025 3751 c-59 -19 -163 -116 -184 -171 -35 -93 -37 -227 -5 -288 7
-15 14 -32 14 -38 0 -22 95 -110 140 -129 64 -29 216 -27 283 3 47 21 48 23
42 54 -10 48 -28 64 -48 43 -20 -19 -101 -45 -142 -45 -76 0 -161 55 -196 127
-28 58 -29 194 -2 245 50 93 103 128 194 128 48 0 76 -6 113 -25 27 -14 53
-25 57 -25 4 0 13 17 20 37 11 34 10 38 -11 52 -34 23 -138 50 -185 49 -22 0
-62 -8 -90 -17z"/>
<path d="M2574 3739 c-3 -6 1 -25 9 -42 21 -44 42 -94 62 -147 10 -25 24 -59
31 -77 8 -17 14 -36 14 -41 0 -6 6 -23 14 -39 8 -15 29 -64 46 -108 18 -44 38
-92 46 -107 18 -34 18 -59 -2 -105 -84 -197 -120 -229 -206 -183 -42 22 -52
16 -62 -42 l-7 -36 51 -11 c65 -14 83 -14 132 1 44 13 95 68 122 133 10 22 24
53 32 68 8 16 14 35 14 42 0 8 6 29 14 47 8 18 24 58 36 88 29 75 40 100 56
133 8 16 14 33 14 39 0 5 6 24 14 41 8 18 24 59 37 92 13 33 27 64 31 70 4 5
8 16 8 25 0 8 14 42 30 75 42 84 40 95 -13 95 -40 0 -45 -3 -60 -35 -9 -20
-17 -41 -17 -48 0 -7 -6 -24 -14 -39 -8 -15 -17 -40 -21 -57 -4 -17 -11 -33
-16 -36 -5 -4 -9 -13 -9 -22 0 -8 -6 -29 -13 -46 -18 -43 -37 -95 -47 -132
-15 -54 -34 -95 -45 -95 -5 0 -18 28 -28 63 -10 34 -25 77 -33 95 -8 18 -14
39 -14 47 0 7 -6 26 -14 42 -8 15 -22 48 -32 73 -9 25 -23 59 -30 77 -8 17
-14 36 -14 43 0 6 -7 24 -15 40 -13 26 -21 30 -55 30 -21 0 -42 -5 -46 -11z"/>
</g>
</svg>
