<?xml version="1.0" standalone="no"?>
<!DOCTYPE svg PUBLIC "-//W3C//DTD SVG 20010904//EN"
 "http://www.w3.org/TR/2001/REC-SVG-20010904/DTD/svg10.dtd">
<svg version="1.0" xmlns="http://www.w3.org/2000/svg"
 width="450.000000pt" height="346.000000pt" viewBox="0 0 450.000000 346.000000"
 preserveAspectRatio="xMidYMid meet">
<metadata>
Created by potrace 1.10, written by Peter Selinger 2001-2011
</metadata>
<g transform="translate(0.000000,346.000000) scale(0.050000,-0.050000)"
fill="#000000" stroke="none">
<path d="M873 3955 c-125 -196 -131 -215 -74 -215 27 0 61 37 106 115 l68 115
296 0 296 0 128 -220 c70 -121 132 -230 138 -241 9 -18 -217 -432 -271 -499
-19 -23 -538 -26 -574 -4 -13 8 -52 64 -86 124 -54 94 -140 154 -140 98 0 -39
173 -308 199 -310 17 -1 83 0 146 2 l115 3 0 -232 0 -231 3490 0 3490 0 0 150
0 150 65 0 c138 1 158 16 151 118 l-6 92 -80 0 -80 0 -6 265 -5 265 80 0 81 0
0 101 0 101 -80 -12 -80 -12 0 173 c0 95 -7 169 -15 166 -158 -71 -225 -142
-225 -240 l0 -100 -60 13 -60 13 0 -101 c0 -99 1 -102 59 -102 l58 0 7 -322 6
-322 55 -44 c48 -38 55 -57 55 -158 l0 -114 -360 0 -360 0 0 108 0 108 74 13
c132 25 306 163 306 243 0 60 -221 51 -280 -12 -111 -119 -320 -19 -320 155 0
9 141 13 313 8 l312 -8 -14 117 c-67 546 -720 617 -832 90 -62 -287 113 -600
336 -602 17 0 25 -36 25 -110 l0 -111 -335 6 -335 5 -6 115 -6 115 61 0 61 0
0 351 c0 454 -25 519 -220 570 -117 31 -236 0 -319 -83 l-61 -61 0 71 0 72
-115 0 -115 0 0 -460 0 -460 125 0 125 0 0 308 c0 372 27 432 191 432 134 0
149 -44 149 -429 0 -194 8 -311 20 -311 11 0 20 -53 20 -120 l0 -120 -660 0
-660 0 0 108 0 108 85 15 c169 28 276 111 363 283 49 97 41 115 -63 144 -52
15 -109 31 -127 36 -23 7 -36 -8 -45 -54 -49 -246 -404 -270 -519 -35 -54 110
-50 425 6 536 101 198 398 218 492 34 18 -36 36 -68 39 -71 12 -14 249 42 249
59 0 254 -498 449 -773 303 -480 -256 -406 -1114 105 -1228 l110 -25 -6 -101
-6 -102 -585 -5 -585 -6 0 261 0 260 126 0 126 0 45 -138 44 -139 141 -6 c174
-9 165 -23 91 149 -35 80 -148 363 -253 629 l-190 484 -140 0 -140 1 -217
-565 c-119 -311 -230 -595 -245 -631 l-29 -66 144 6 143 6 42 135 42 135 95 0
95 0 0 -260 0 -260 -570 0 -570 0 0 120 0 120 115 0 c420 1 626 485 269 634
l-70 29 73 59 c134 111 139 309 12 436 -87 87 -167 102 -554 102 l-345 0 0
-630 0 -630 210 0 210 0 0 -120 0 -121 -685 6 -685 5 -6 185 -6 185 156 0 156
1 155 270 c85 148 155 282 155 297 0 25 -259 489 -305 547 -14 18 -109 25
-348 25 l-327 0 -67 -105z m2092 -170 c35 -31 47 -136 20 -177 -33 -49 -112
-68 -289 -68 l-187 0 4 145 c3 80 5 145 6 145 231 0 417 -19 446 -45z m1088
-258 c38 -108 74 -210 79 -227 8 -25 -18 -30 -161 -30 -94 0 -171 5 -171 10 0
6 32 100 71 210 39 110 75 213 80 228 15 42 26 21 102 -191z m3455 -69 c98
-116 78 -138 -128 -138 -180 0 -180 0 -180 51 0 143 211 203 308 87z m-4540
-161 c99 -45 115 -209 25 -267 -28 -18 -118 -29 -260 -32 l-218 -5 -2 163 -3
164 204 0 c112 0 226 -10 254 -23z"/>
<path d="M8445 3872 c20 -15 35 -53 35 -89 0 -35 9 -63 20 -63 11 0 20 31 20
68 0 42 11 72 30 79 24 9 30 -5 30 -68 0 -80 29 -108 46 -44 9 33 9 33 12 0 3
-49 40 -43 61 10 l18 45 2 -45 c2 -87 41 -44 41 45 0 109 -49 126 -71 25 l-15
-65 -30 65 c-29 61 -38 65 -133 64 -88 0 -97 -4 -66 -27z"/>
<path d="M531 3669 c-52 -53 -37 -121 41 -185 44 -37 69 -73 65 -95 -11 -57
-54 -57 -68 0 -16 63 -69 68 -69 6 1 -59 20 -87 74 -103 128 -40 181 140 66
225 -33 24 -60 62 -60 84 0 46 36 52 53 9 17 -44 67 -37 67 9 0 72 -113 105
-169 50z"/>
<path d="M294 3487 c-19 -106 -32 -196 -28 -200 17 -17 74 19 74 45 0 38 58
36 73 -2 14 -36 67 -40 67 -5 -1 14 -14 97 -30 185 -16 88 -29 162 -29 165 -1
3 -21 5 -46 5 -42 0 -48 -16 -81 -193z m106 -18 c0 -27 -9 -49 -20 -49 -11 0
-20 28 -20 61 0 36 8 56 20 49 11 -7 20 -34 20 -61z"/>
<path d="M740 3490 c0 -156 5 -190 30 -190 22 0 30 23 30 90 0 78 5 90 43 90
38 0 41 -8 32 -90 -9 -78 -5 -90 27 -90 35 0 38 17 38 190 0 172 -4 190 -37
190 -30 0 -37 -14 -35 -75 1 -54 -6 -75 -28 -75 -20 0 -32 24 -36 75 -15 174
-64 85 -64 -115z"/>
<path d="M980 3490 c0 -180 2 -190 42 -190 37 0 41 10 35 80 -7 66 -2 80 27
80 29 0 36 -17 36 -80 0 -80 0 -80 80 -80 58 0 80 8 80 30 0 17 18 30 40 30
22 0 40 -13 40 -30 0 -16 14 -30 30 -30 37 0 37 13 0 207 -17 86 -30 160 -30
165 0 4 -21 8 -47 8 -43 0 -49 -11 -61 -115 -16 -142 -48 -260 -50 -189 -1 26
-11 64 -23 85 -14 27 -14 52 2 81 47 87 9 138 -101 138 l-100 0 0 -190z m140
80 c0 -30 -11 -50 -29 -50 -38 0 -54 29 -39 68 20 51 68 38 68 -18z m220 -101
c0 -27 -9 -49 -20 -49 -11 0 -20 28 -20 61 0 36 8 56 20 49 11 -7 20 -34 20
-61z"/>
<path d="M1440 3490 l0 -190 100 0 c76 0 100 7 100 30 0 20 -20 30 -60 30 -54
0 -60 7 -60 61 0 56 6 61 55 55 38 -4 55 3 55 24 0 18 -22 33 -55 36 -82 10
-77 84 5 84 40 0 60 10 60 30 0 23 -24 30 -100 30 l-100 0 0 -190z"/>
</g>
</svg>
