<?xml version="1.0" standalone="no"?>
<!DOCTYPE svg PUBLIC "-//W3C//DTD SVG 20010904//EN"
 "http://www.w3.org/TR/2001/REC-SVG-20010904/DTD/svg10.dtd">
<svg version="1.0" xmlns="http://www.w3.org/2000/svg"
 width="300.000000pt" height="300.000000pt" viewBox="0 0 300.000000 300.000000"
 preserveAspectRatio="xMidYMid meet">
<metadata>
Created by potrace 1.16, written by Peter Selinger 2001-2019
</metadata>
<g transform="translate(0.000000,300.000000) scale(0.100000,-0.100000)"
fill="#000000" stroke="none">
<path d="M1305 2838 c-205 -38 -392 -141 -555 -307 -190 -191 -319 -443 -377
-736 -27 -137 -25 -494 5 -625 97 -436 338 -769 674 -933 151 -74 234 -92 423
-92 188 0 272 18 421 90 334 162 578 499 677 935 18 82 21 127 21 325 0 200
-2 243 -21 327 -29 128 -65 233 -119 347 -170 361 -472 608 -818 670 -71 13
-261 13 -331 -1z m327 -79 c87 -17 176 -49 182 -65 3 -7 16 -14 28 -14 13 0
58 -22 101 -48 328 -200 546 -587 575 -1020 19 -282 -25 -515 -143 -758 -153
-316 -416 -536 -717 -599 -94 -20 -262 -20 -357 0 -406 86 -734 458 -837 950
-27 129 -27 461 0 590 55 263 170 487 344 667 80 83 218 188 248 188 8 0 14 5
14 11 0 5 4 8 10 4 18 -11 60 7 60 25 0 20 56 43 160 66 70 15 263 17 332 3z"/>
<path d="M1430 2284 l0 -299 -131 130 -130 130 -49 -55 c-27 -30 -50 -58 -50
-62 0 -3 75 -79 167 -167 l168 -161 -153 -146 c-83 -80 -152 -150 -152 -155 0
-12 71 -119 79 -119 3 0 61 55 128 122 l123 123 2 -235 c2 -129 3 -260 3 -292
0 -38 4 -54 11 -50 6 4 117 108 247 232 l237 225 -152 148 -153 147 152 148
153 149 -158 154 c-86 85 -199 195 -249 244 l-93 89 0 -300z m228 -139 c28
-22 51 -42 52 -45 0 -3 -31 -29 -70 -58 l-70 -52 0 110 c0 126 -10 121 88 45z
m25 -616 l30 -26 -56 -41 c-30 -23 -58 -46 -62 -52 -18 -29 -25 0 -25 101 l0
110 41 -33 c23 -18 55 -45 72 -59z"/>
<path d="M990 726 l0 -216 131 0 c146 0 174 10 199 70 18 42 -1 104 -38 127
-15 9 -29 18 -31 20 -2 1 10 18 28 38 41 47 42 92 2 137 l-29 33 -131 4 -131
3 0 -216z m224 138 c23 -22 21 -81 -3 -94 -11 -5 -49 -10 -85 -10 l-66 0 0 53
c0 30 3 57 7 60 14 15 131 7 147 -9z m10 -185 c19 -15 26 -30 26 -54 0 -50
-28 -65 -117 -65 l-73 0 0 63 c0 35 3 67 7 70 3 4 34 7 68 7 48 0 68 -5 89
-21z"/>
<path d="M1400 883 c0 -32 3 -129 7 -215 l6 -158 134 0 133 0 0 25 0 25 -100
0 -100 0 0 190 0 190 -40 0 -40 0 0 -57z"/>
<path d="M1750 725 l0 -215 145 0 145 0 0 25 0 25 -110 0 -110 0 0 70 0 70
105 0 105 0 0 30 0 30 -105 0 -106 0 3 58 3 57 113 3 112 3 0 29 0 30 -150 0
-150 0 0 -215z"/>
</g>
</svg>
