<?xml version="1.0" standalone="no"?>
<!DOCTYPE svg PUBLIC "-//W3C//DTD SVG 20010904//EN"
 "http://www.w3.org/TR/2001/REC-SVG-20010904/DTD/svg10.dtd">
<svg version="1.0" xmlns="http://www.w3.org/2000/svg"
 width="512.000000pt" height="512.000000pt" viewBox="0 0 512.000000 512.000000"
 preserveAspectRatio="xMidYMid meet">
<metadata>
Created by potrace 1.16, written by Peter Selinger 2001-2019
</metadata>
<g transform="translate(0.000000,512.000000) scale(0.100000,-0.100000)"
fill="#000000" stroke="none">
<path d="M2250 4755 c-188 -26 -244 -44 -265 -86 -30 -57 -9 -127 45 -149 27
-11 46 -10 118 3 296 57 594 52 871 -13 231 -54 519 -183 680 -304 l35 -26
-232 0 c-133 0 -253 -5 -284 -11 -220 -47 -366 -268 -316 -479 8 -36 19 -73
23 -82 7 -17 -47 -18 -1039 -18 -575 0 -1046 4 -1046 8 0 12 94 146 158 227
87 108 228 243 343 329 57 43 112 90 121 104 55 85 -36 186 -130 146 -47 -19
-164 -107 -274 -206 -155 -140 -325 -349 -424 -525 l-46 -83 -122 0 c-147 0
-216 -19 -307 -86 -63 -47 -131 -139 -150 -203 -6 -24 -9 -277 -7 -751 l3
-715 29 -58 c16 -31 55 -81 86 -111 99 -95 185 -126 352 -126 l106 0 43 -77
c275 -505 794 -906 1363 -1053 223 -58 279 -65 566 -65 232 0 280 3 386 23
608 112 1121 447 1462 957 37 55 81 126 97 157 l30 58 106 0 c159 0 250 32
346 122 59 57 92 109 117 184 15 46 16 120 14 740 l-3 689 -34 70 c-44 88
-119 163 -208 207 -66 32 -73 33 -210 36 l-141 4 -13 31 c-21 49 -170 269
-242 355 -95 113 -258 267 -383 360 -303 226 -649 366 -1034 418 -131 17 -461
17 -590 -1z m1785 -847 c60 -65 176 -217 214 -280 l23 -38 -531 0 -531 0 -44
43 c-86 82 -85 198 2 280 56 54 76 56 458 57 l352 0 57 -62z m755 -560 c39
-25 61 -47 84 -88 l31 -55 0 -630 c0 -505 -3 -638 -14 -668 -16 -47 -60 -98
-109 -129 l-37 -23 -617 -5 -618 -5 -26 -26 c-16 -16 -28 -41 -31 -67 -5 -37
-2 -45 30 -77 l35 -35 381 0 c210 0 381 -3 381 -6 0 -3 -31 -51 -69 -107 -276
-404 -702 -701 -1180 -821 -293 -74 -642 -77 -935 -7 -207 50 -450 154 -633
273 l-98 63 265 5 c230 5 271 8 310 25 103 43 185 120 228 214 36 78 43 220
13 303 l-20 57 326 3 325 3 24 28 c27 31 31 80 12 122 -26 58 36 55 -1260 55
-817 0 -1205 3 -1232 11 -52 14 -121 80 -143 137 -17 44 -18 94 -18 677 l0
630 31 55 c23 41 45 63 84 88 l54 32 2186 0 2186 0 54 -32z m-2888 -1837 c62
-43 83 -85 83 -167 0 -65 -3 -76 -31 -111 -16 -21 -50 -48 -74 -60 -44 -23
-50 -23 -405 -22 l-360 0 -68 78 c-74 84 -149 184 -197 262 l-30 50 523 -3
523 -3 36 -24z"/>
<path d="M3882 3155 c-40 -17 -38 -13 -241 -523 -169 -422 -170 -426 -110
-476 40 -34 98 -35 133 -3 35 30 366 853 366 909 0 48 -22 83 -62 97 -39 14
-46 13 -86 -4z"/>
<path d="M594 3106 l-34 -34 0 -416 c0 -445 2 -460 49 -486 37 -20 96 -12 122
16 23 25 24 31 29 231 l5 205 33 29 c46 42 103 41 143 -2 l29 -31 0 -190 c0
-240 11 -268 108 -268 29 0 46 7 66 27 l27 27 -3 247 -3 247 -30 44 c-71 102
-209 126 -357 63 -17 -7 -18 3 -18 125 0 72 -5 140 -10 151 -13 24 -61 49 -96
49 -16 0 -38 -12 -60 -34z"/>
<path d="M4291 3113 c-21 -21 -70 -131 -201 -457 -181 -452 -183 -459 -145
-513 33 -48 137 -47 167 0 8 12 89 209 181 437 185 461 190 479 138 531 -40
40 -98 41 -140 2z"/>
<path d="M1435 3041 c-58 -18 -75 -48 -75 -135 l0 -66 -31 0 c-21 0 -40 -10
-61 -30 -26 -27 -30 -36 -25 -67 8 -47 32 -72 78 -79 l38 -6 3 -225 3 -225 28
-24 c30 -26 83 -32 118 -14 43 24 49 57 49 278 l0 209 47 6 c86 9 120 84 67
146 -21 26 -33 31 -69 31 l-43 0 -4 75 c-3 64 -7 78 -28 99 -28 26 -64 37 -95
27z"/>
<path d="M1923 3035 c-43 -18 -53 -42 -53 -124 l0 -71 -35 0 c-50 0 -85 -36
-85 -88 0 -47 31 -80 84 -89 l36 -6 0 -222 0 -223 31 -26 c42 -36 97 -35 133
0 l26 27 0 223 0 224 35 0 c42 0 90 22 99 45 14 37 6 86 -19 110 -18 19 -35
25 -70 25 l-45 0 0 71 c0 83 -10 106 -55 125 -41 17 -42 17 -82 -1z"/>
<path d="M2362 2853 c-13 -2 -32 -19 -43 -36 -18 -31 -19 -50 -17 -455 l3
-424 28 -24 c41 -35 99 -33 138 5 l29 29 0 147 c0 136 1 147 18 140 86 -35
210 -32 288 8 60 31 119 92 147 156 29 65 29 188 0 253 -30 66 -104 141 -166
169 -67 30 -190 33 -255 6 -41 -17 -44 -16 -70 2 -30 23 -66 31 -100 24z m365
-213 c52 -33 72 -124 39 -175 -24 -36 -75 -65 -116 -65 -93 0 -158 106 -116
188 38 75 121 97 193 52z"/>
<path d="M3169 2701 c-24 -24 -29 -38 -29 -76 0 -38 5 -52 29 -76 25 -24 38
-29 78 -29 27 0 58 7 69 15 51 35 55 121 7 169 -21 21 -35 26 -75 26 -41 0
-54 -5 -79 -29z"/>
<path d="M3169 2311 c-23 -24 -29 -38 -29 -74 0 -55 27 -92 79 -108 110 -33
187 103 104 185 -21 21 -35 26 -75 26 -41 0 -54 -5 -79 -29z"/>
<path d="M3115 1741 c-39 -16 -60 -51 -60 -98 0 -38 5 -49 33 -74 70 -62 172
-20 172 71 0 52 -13 76 -50 95 -32 16 -64 18 -95 6z"/>
<path d="M1619 4561 c-57 -57 -31 -158 45 -177 54 -13 120 25 131 76 23 104
-102 175 -176 101z"/>
</g>
</svg>
