<svg version="1.1" id="Layer_1" xmlns="http://www.w3.org/2000/svg" xmlns:xlink="http://www.w3.org/1999/xlink" x="0px" y="0px"
	 width="100%" viewBox="0 0 1024 512" enable-background="new 0 0 1024 512" xml:space="preserve">
<path fill="#000000" opacity="1.000000" stroke="none" 
	d="
M634.397339,264.802063 
	C636.581970,273.115814 637.105408,281.453766 640.621399,289.965485 
	C643.970276,285.455322 643.858765,281.003143 644.482361,276.961823 
	C647.424927,257.893341 652.632935,239.293900 655.914612,220.305176 
	C656.619934,216.224045 658.832825,214.162598 662.954651,214.079056 
	C666.949829,213.998108 670.949646,213.709900 674.937866,213.829742 
	C679.944824,213.980194 680.903870,215.203552 679.730408,220.053116 
	C676.373047,233.928848 672.819763,247.757095 669.442749,261.628174 
	C664.723206,281.014343 659.959656,300.392029 655.542908,319.847778 
	C654.699463,323.563141 653.140442,324.970520 649.587769,324.915344 
	C644.590820,324.837738 639.579895,324.681396 634.597168,324.958313 
	C630.431519,325.189789 628.697998,323.338959 627.833008,319.473175 
	C622.454468,295.436005 614.599121,272.013702 609.977356,247.784775 
	C609.762634,246.659149 609.735229,245.431671 608.293518,244.637863 
	C605.203430,245.577179 605.017761,248.596069 604.678406,250.964401 
	C601.738770,271.479584 594.919312,291.031006 589.984436,311.046783 
	C589.427795,313.304749 588.720764,315.545502 588.402527,317.838531 
	C587.521912,324.183716 586.703064,325.080933 580.263794,325.181458 
	C575.601685,325.254211 570.930237,324.910675 566.272949,325.061829 
	C562.323059,325.190033 560.662598,323.273346 559.880615,319.658508 
	C557.279419,307.634766 554.817627,295.567749 551.737000,283.663635 
	C546.242371,262.430908 542.354980,240.795593 535.775757,219.843124 
	C534.526672,215.865051 535.795288,214.067947 539.713013,213.992996 
	C544.873413,213.894226 550.037903,213.968521 555.200012,214.027328 
	C557.451599,214.052948 558.835571,215.105438 559.453247,217.435898 
	C560.729187,222.250137 561.833740,227.047363 562.618469,232.004562 
	C564.066895,241.153244 566.989746,250.065720 568.496399,259.208771 
	C569.868896,267.537689 573.045166,275.610870 572.349121,284.268890 
	C572.185181,286.307892 573.077515,288.108704 575.266785,288.223755 
	C578.090454,288.372162 577.683594,285.931793 577.647156,284.228790 
	C577.490784,276.917603 580.199829,270.173828 581.852356,263.255768 
	C585.245972,249.049026 589.339966,235.009506 592.727905,220.801544 
	C593.997131,215.479050 596.354370,213.156845 601.971985,213.731674 
	C607.417236,214.288849 612.935303,213.647491 618.424805,214.398010 
	C621.811584,214.861084 623.427551,216.466537 623.930603,219.713379 
	C626.277771,234.863480 631.329834,249.387726 634.397339,264.802063 
z"/>
<path fill="#000000" opacity="1.000000" stroke="none" 
	d="
M431.540253,270.456543 
	C427.947205,274.035553 424.255005,276.915161 419.875885,278.666016 
	C416.259949,280.111786 415.946808,282.176666 417.818207,285.238068 
	C424.330017,295.890503 430.787354,306.576172 437.266022,317.248871 
	C437.784546,318.103149 438.415131,318.908569 438.804657,319.817657 
	C439.444122,321.309998 440.658051,322.864197 439.709869,324.514771 
	C438.549377,326.534943 436.528168,325.631348 434.737518,325.589691 
	C427.577271,325.423035 420.413605,325.244568 413.253387,325.309570 
	C410.196075,325.337311 408.411041,324.253754 407.015808,321.481415 
	C402.074982,311.663879 396.658691,302.080292 391.899414,292.178833 
	C389.301880,286.774780 385.435791,285.091858 379.853973,285.569305 
	C370.293579,286.387054 370.171997,286.307495 370.408783,295.733582 
	C370.617767,304.053864 370.918396,312.383240 371.593353,320.674835 
	C371.862305,323.978516 371.123993,325.320709 367.761505,325.287903 
	C360.931458,325.221313 354.095764,325.189972 347.270355,325.401794 
	C343.232941,325.527069 342.000610,323.528503 342.030518,319.930145 
	C342.066559,315.598969 341.934021,311.266724 341.929138,306.934875 
	C341.897308,278.609924 341.858276,250.284973 341.874023,221.960052 
	C341.877899,215.002151 341.951141,214.687424 349.001556,214.323502 
	C369.152100,213.283310 389.345673,213.900360 409.412567,215.327271 
	C431.407166,216.891235 440.132294,235.294601 437.852997,255.112198 
	C437.219269,260.622375 435.479218,265.837280 431.540253,270.456543 
M409.134674,243.678955 
	C407.390594,238.880020 404.053253,235.635834 398.945953,235.397568 
	C390.808746,235.017944 382.643066,235.280243 374.490295,235.189804 
	C371.150879,235.152771 370.236359,236.909607 370.303009,239.920731 
	C370.442871,246.238144 370.470398,252.543732 370.921021,258.865570 
	C371.239441,263.332703 373.280670,264.701904 377.183319,264.549500 
	C384.498383,264.263855 391.823608,264.089844 399.121460,263.554382 
	C405.500305,263.086395 409.610809,258.373535 409.656097,251.931046 
	C409.673584,249.441650 409.476227,246.950760 409.134674,243.678955 
z"/>
<path fill="#000000" opacity="1.000000" stroke="none" 
	d="
M808.211548,314.961609 
	C808.134460,326.030579 809.636169,325.410980 798.251892,325.190002 
	C784.192017,324.917084 786.716553,325.734619 786.682678,313.181335 
	C786.600891,282.852783 786.692932,252.523651 786.756409,222.194839 
	C786.772827,214.345703 787.162842,214.560898 794.910522,213.789169 
	C804.905090,212.793625 811.353210,215.564590 816.250977,225.307037 
	C823.712158,240.148560 833.107361,254.018433 841.693665,268.293457 
	C844.527466,273.004822 847.428528,277.672394 849.380798,282.854767 
	C850.247070,285.154327 851.500000,287.065338 854.598755,286.178680 
	C854.598755,282.172333 854.868530,278.208618 854.552673,274.292145 
	C853.089905,256.154724 853.985779,237.984512 853.538269,219.837021 
	C853.419983,215.041473 855.407715,213.815567 859.716797,213.823563 
	C878.012817,213.857559 875.142578,212.392197 875.242310,228.638962 
	C875.427429,258.800110 875.217407,288.963684 875.400574,319.124878 
	C875.429382,323.870239 874.072571,325.452087 869.199890,325.392303 
	C851.503906,325.175140 851.583862,325.286804 842.389099,310.044647 
	C831.464966,291.935822 819.621826,274.366364 810.434631,255.243912 
	C810.248291,254.855972 809.740723,254.622284 808.206543,253.311417 
	C808.206543,274.414551 808.206543,294.441620 808.211548,314.961609 
z"/>
<path fill="#000000" opacity="1.000000" stroke="none" 
	d="
M708.667236,218.697266 
	C709.697144,215.889465 711.335327,214.801468 714.022339,214.488708 
	C720.188171,213.770996 726.291382,213.699844 732.442078,214.588150 
	C734.708374,214.915451 735.997314,215.929092 736.824707,218.021973 
	C745.694824,240.459381 754.722778,262.834991 763.478760,285.316650 
	C768.057617,297.073334 772.770935,308.766266 778.027954,320.231598 
	C779.554382,323.560486 778.402588,325.082947 775.160645,325.209503 
	C769.338989,325.436798 763.511169,325.491913 757.694214,324.803833 
	C754.305542,324.403015 752.424438,322.861938 751.499878,319.419739 
	C750.120850,314.285339 748.093811,309.328613 746.508728,304.244476 
	C745.664734,301.537292 744.281982,300.041168 741.233032,300.004303 
	C729.241272,299.859436 717.248169,299.661438 705.262756,299.265533 
	C701.845276,299.152649 700.501892,300.946259 699.607300,303.693939 
	C697.854980,309.075836 695.981812,314.421417 694.367798,319.844269 
	C693.245850,323.614075 690.873840,325.283173 687.038452,325.266479 
	C681.707458,325.243286 676.373840,325.413757 671.045654,325.299744 
	C667.575439,325.225494 666.793152,323.713104 668.472046,320.427826 
	C673.825562,309.952332 677.684875,298.841858 681.880798,287.875977 
	C685.028870,279.648895 688.337158,271.483276 691.513611,263.266876 
	C697.206421,248.541779 702.853577,233.799072 708.667236,218.697266 
M708.383606,278.019012 
	C707.712769,281.130402 709.476562,281.754639 712.052673,281.732178 
	C718.549683,281.675507 725.050476,281.810242 731.543579,281.636688 
	C736.485840,281.504578 737.546448,279.974457 735.736572,275.359894 
	C732.027893,265.903717 728.282532,256.472076 725.400391,246.715179 
	C724.884216,244.967697 724.407532,242.690048 721.430542,242.845596 
	C721.056946,243.712830 720.622864,244.586624 720.296143,245.498901 
	C716.490540,256.123688 714.083801,267.260620 708.383606,278.019012 
z"/>
<path fill="#000000" opacity="1.000000" stroke="none" 
	d="
M318.088684,254.958588 
	C327.345551,265.898071 326.628204,278.680084 325.901947,291.328461 
	C324.395172,317.569458 300.103302,329.734558 277.437439,326.999207 
	C255.999100,324.411987 243.107300,314.086029 239.535995,294.066650 
	C235.557968,271.767365 241.880844,250.985168 265.072144,242.723312 
	C280.595032,237.193329 305.073669,238.424026 318.088684,254.958588 
M299.986389,296.363556 
	C304.268768,285.584625 304.011383,275.108063 296.812469,265.690979 
	C289.015656,255.491867 273.892426,256.751343 267.415771,267.798126 
	C264.837585,272.195496 263.455261,276.997833 263.403229,282.034454 
	C263.317108,290.364288 264.527161,298.684174 271.355438,304.227051 
	C279.431641,310.782990 293.770172,310.095337 299.986389,296.363556 
z"/>
<path fill="#000000" opacity="1.000000" stroke="none" 
	d="
M464.705994,278.578308 
	C474.051117,274.015503 483.846588,273.016083 493.583832,271.756256 
	C495.949738,271.450165 499.292694,272.097321 499.475433,268.645813 
	C499.680786,264.766785 501.506866,260.358551 496.810150,257.339294 
	C489.629578,252.723328 481.555786,254.692627 477.551117,262.387970 
	C476.680603,264.060730 475.776672,265.745911 473.872620,266.226593 
	C467.483276,267.839508 460.984039,267.534424 454.540314,266.738312 
	C451.778931,266.397156 451.537140,264.007538 451.865417,261.672974 
	C453.169403,252.399261 463.656677,241.660721 473.201904,241.052887 
	C483.808197,240.377487 494.510071,240.006073 505.096985,241.707016 
	C516.653442,243.563690 523.145020,251.237488 523.341309,262.990295 
	C523.619263,279.636597 523.896362,296.282898 524.187073,312.928986 
	C524.233521,315.589600 524.270813,318.221161 525.782532,320.634583 
	C527.569824,323.487946 525.733032,324.781799 523.254456,324.957703 
	C517.611816,325.358154 511.945496,325.472382 506.331757,324.428192 
	C504.573303,324.101105 503.129639,323.385529 502.792175,321.437317 
	C502.091339,317.391083 499.976196,317.903839 497.578278,319.872986 
	C488.904449,326.995728 478.921356,328.096771 468.349823,326.175903 
	C457.342468,324.175781 450.324158,317.394623 448.744690,307.536469 
	C446.893677,295.983612 451.657623,285.608276 461.250031,280.327911 
	C462.270477,279.766144 463.324249,279.265015 464.705994,278.578308 
M493.216980,286.584930 
	C489.752258,287.716766 486.279541,288.824829 482.825043,289.987061 
	C479.316467,291.167450 476.050507,292.771698 473.839447,295.902832 
	C470.864594,300.115540 472.165680,305.106720 476.713470,307.142365 
	C484.042023,310.422699 493.363983,307.499207 497.505463,300.651642 
	C498.996552,298.186310 499.640076,295.497253 500.072021,292.674774 
	C501.036346,286.373474 500.573120,285.828979 493.216980,286.584930 
z"/>
<path fill="#000000" opacity="1.000000" stroke="none" 
	d="
M187.727478,262.591675 
	C187.575897,274.221313 187.568024,285.386658 187.304123,296.545898 
	C187.215057,300.312347 189.067886,300.966461 192.227066,300.937836 
	C203.059036,300.839569 213.894287,301.007507 224.724243,300.828949 
	C228.612869,300.764832 230.367950,301.818024 230.596497,306.079865 
	C230.854919,310.898865 231.147232,315.714722 231.273178,320.544037 
	C231.354691,323.668915 230.061218,325.177856 226.880859,325.178802 
	C205.215515,325.185272 183.550110,325.208313 161.884888,325.277649 
	C158.653549,325.287994 158.010193,323.381500 158.018723,320.740601 
	C158.041870,313.574371 158.000061,306.407776 158.054520,299.241852 
	C158.254547,272.915894 158.577255,246.590302 158.615082,220.264236 
	C158.621948,215.476578 160.300552,213.580215 165.008163,213.786713 
	C170.991898,214.049210 176.980408,213.661240 182.979904,214.309509 
	C186.858109,214.728577 188.040817,216.530624 188.002151,220.130325 
	C187.851807,234.127747 187.836563,248.126617 187.727478,262.591675 
z"/>
<path fill="#000000" opacity="1.000000" stroke="none" 
	d="
M319.498383,383.279297 
	C326.113281,381.668884 331.737488,378.802795 336.718475,374.859436 
	C340.098297,372.183716 342.605377,372.287201 344.906952,375.948700 
	C345.260132,376.510559 345.718750,377.005005 346.093994,377.554260 
	C350.721252,384.327209 350.327728,385.095276 343.060059,388.966064 
	C325.598572,398.266052 307.035614,403.395996 287.293793,403.971832 
	C275.808868,404.306824 264.474701,403.299774 253.228287,400.312622 
	C241.293427,397.142609 230.099060,392.577087 219.406128,386.481659 
	C216.291946,384.706451 215.872971,382.788269 217.379135,380.020142 
	C218.328354,378.275635 219.518158,376.659149 220.637726,375.010773 
	C222.968887,371.578583 225.490723,371.285309 228.966141,373.812653 
	C247.233749,387.096893 268.123566,390.127289 290.034973,389.180634 
	C300.056580,388.747681 309.858887,387.475983 319.498383,383.279297 
z"/>
<path fill="#000000" opacity="1.000000" stroke="none" 
	d="
M228.660385,192.651932 
	C225.102722,195.461075 222.617615,194.795746 220.790176,191.103928 
	C220.424545,190.365295 219.905045,189.689987 219.385483,189.042450 
	C215.108536,183.711960 215.425751,182.173447 221.597458,178.903870 
	C238.237656,170.088486 255.829605,163.926620 274.692413,163.220978 
	C291.192932,162.603683 307.545349,164.636459 323.274750,170.432678 
	C330.449554,173.076584 337.239349,176.465118 344.105774,179.732407 
	C350.535187,182.791794 350.865845,184.287247 346.454987,190.023315 
	C345.240112,191.603210 343.932129,193.127472 342.531952,194.543930 
	C341.363647,195.725861 340.025269,195.979691 338.534058,194.815033 
	C331.106750,189.014389 322.764282,185.294403 313.689331,182.601410 
	C301.141632,178.877899 288.482819,175.956543 275.457153,177.388107 
	C259.022888,179.194244 242.886536,182.598831 228.660385,192.651932 
z"/>
<path fill="#000000" opacity="1.000000" stroke="none" 
	d="
M313.055023,194.877960 
	C319.519501,196.412949 324.796906,199.653336 330.196838,202.575897 
	C334.268982,204.779861 333.838348,207.845810 331.728180,211.409866 
	C329.601349,215.002075 327.441620,215.851639 323.709717,213.400497 
	C304.944000,201.075058 284.283905,199.040695 262.883575,203.498886 
	C255.160568,205.107773 247.578903,208.102219 240.831879,212.475464 
	C235.457825,215.958786 234.705841,211.150192 232.970428,208.377472 
	C231.016968,205.256378 231.169296,203.163864 235.264908,201.064835 
	C248.165146,194.453262 261.898468,190.847153 276.082764,189.163712 
	C288.648193,187.672394 300.790985,190.826508 313.055023,194.877960 
z"/>
<path fill="#000000" opacity="1.000000" stroke="none" 
	d="
M308.417480,362.511841 
	C313.931061,360.037964 319.513641,358.437195 323.931488,354.821838 
	C327.678711,351.755249 329.665070,353.895203 331.540771,356.697510 
	C333.552887,359.703674 335.310791,362.710846 330.969482,365.596771 
	C325.609772,369.159607 319.525726,371.167542 313.585907,372.976318 
	C287.277649,380.987457 261.705383,378.918060 237.209549,365.946625 
	C230.560043,362.425507 229.968018,358.882355 235.392609,353.466095 
	C237.529938,351.332062 239.427261,352.856384 241.190674,353.986572 
	C261.102875,366.748505 282.758667,367.678619 305.176117,363.496246 
	C306.151764,363.314209 307.089905,362.930847 308.417480,362.511841 
z"/>
<path fill="#000000" opacity="1.000000" stroke="none" 
	d="
M245.626770,227.436050 
	C245.177582,223.584885 248.269150,223.220612 250.316757,222.240768 
	C270.396790,212.632004 290.713013,212.515198 311.170715,221.049561 
	C312.705750,221.689926 314.178802,222.484909 315.729858,223.079727 
	C318.545654,224.159546 321.185730,225.172699 319.235870,229.101807 
	C317.218018,233.167999 314.676636,234.242737 310.821503,231.961105 
	C296.982941,223.770767 282.255524,222.914230 266.950409,226.330566 
	C262.849884,227.245850 259.015472,228.905518 255.376740,230.894592 
	C250.870575,233.357819 247.819427,232.283981 245.626770,227.436050 
z"/>
<path fill="#000000" opacity="1.000000" stroke="none" 
	d="
M256.225830,346.857635 
	C254.168915,346.040894 252.435516,345.449768 250.753448,344.737427 
	C247.728973,343.456604 244.629883,342.033539 246.290405,337.853424 
	C247.713196,334.271729 251.904953,333.148956 255.377350,335.440125 
	C261.645691,339.576019 268.765503,341.407959 275.929504,342.737244 
	C286.219269,344.646515 296.106140,342.601868 305.525452,338.150909 
	C308.083618,336.942078 310.655884,335.748627 313.284943,334.707916 
	C316.880127,333.284760 317.944031,336.290924 319.229980,338.482574 
	C320.593933,340.807220 320.378235,342.990204 317.612854,344.288788 
	C297.647278,353.664337 277.283936,354.239410 256.225830,346.857635 
z"/>
<path fill="#000000" opacity="1.000000" stroke="none" 
	d="
M901.706970,224.334564 
	C902.037231,226.347824 902.113953,227.989136 899.820374,229.065536 
	C895.994324,226.367050 899.094299,221.912094 897.458435,218.727173 
	C894.203796,219.055893 894.271362,219.061447 893.969910,222.727921 
	C893.791016,224.902328 894.588379,227.465439 891.619385,229.173050 
	C887.315308,225.905121 892.936890,218.623596 886.597107,216.955200 
	C886.891174,214.743744 888.161438,214.733688 889.308228,214.727463 
	C893.117798,214.706741 896.929199,214.700974 900.737183,214.798584 
	C905.114624,214.910797 904.180481,219.573822 906.390808,221.614807 
	C908.164124,221.368881 908.035950,219.699081 908.497131,218.632233 
	C909.384216,216.580185 910.042114,214.335831 912.918640,214.891327 
	C916.039368,215.494003 915.355347,218.197525 915.192932,220.158157 
	C914.954712,223.033966 916.587280,226.413391 913.514160,228.871170 
	C910.469910,227.154129 912.401123,224.192657 911.368408,221.983231 
	C909.357300,224.115540 910.185974,228.800858 906.465820,228.723740 
	C903.376343,228.659668 903.848389,224.548386 902.245483,222.558136 
	C902.013062,222.720673 901.661438,222.839554 901.590454,223.052170 
	C901.493774,223.341354 901.611572,223.702118 901.706970,224.334564 
z"/>
</svg>