<?xml version="1.0" standalone="no"?>
<!DOCTYPE svg PUBLIC "-//W3C//DTD SVG 20010904//EN"
 "http://www.w3.org/TR/2001/REC-SVG-20010904/DTD/svg10.dtd">
<svg version="1.0" xmlns="http://www.w3.org/2000/svg"
 width="1280.000000pt" height="529.000000pt" viewBox="0 0 1280.000000 529.000000"
 preserveAspectRatio="xMidYMid meet">
<metadata>
Created by potrace 1.16, written by Peter Selinger 2001-2019
</metadata>
<g transform="translate(0.000000,529.000000) scale(0.100000,-0.100000)"
fill="#000000" stroke="none">
<path d="M1525 4718 c-66 -24 -232 -138 -242 -166 -7 -18 -57 -94 -84 -127 -9
-11 -19 -47 -22 -80 -4 -33 -13 -80 -21 -103 -15 -41 -14 -50 6 -130 37 -151
47 -172 116 -242 57 -57 63 -67 55 -89 -5 -15 -34 -43 -68 -65 -70 -46 -255
-227 -255 -249 0 -25 -50 -77 -73 -77 -13 0 -38 17 -59 39 -41 44 -109 87
-171 108 -27 9 -85 14 -175 14 l-135 0 -81 -39 c-142 -69 -237 -173 -268 -295
-42 -164 -30 -385 28 -498 67 -132 250 -247 423 -265 55 -6 65 -4 101 20 22
14 46 26 54 26 23 0 36 -33 36 -93 0 -71 39 -221 90 -349 22 -56 40 -111 38
-122 -2 -13 -18 -24 -54 -36 -28 -9 -71 -28 -96 -43 -55 -32 -138 -111 -138
-131 0 -8 -11 -23 -24 -33 -13 -11 -26 -34 -29 -53 -3 -19 -11 -62 -17 -95
-16 -83 -7 -265 17 -336 44 -130 206 -275 356 -320 148 -44 263 -33 416 41
118 57 163 109 241 280 11 25 88 25 121 1 39 -29 166 -69 274 -86 160 -26 204
-17 190 38 -10 37 -33 52 -100 66 -33 7 -87 24 -121 37 -33 13 -74 24 -91 24
-39 0 -106 24 -144 51 -27 19 -32 20 -53 5 -13 -8 -34 -31 -46 -51 -15 -24
-32 -38 -52 -42 -19 -4 -66 -39 -125 -95 -111 -102 -185 -142 -296 -160 -70
-11 -79 -10 -163 16 -113 36 -148 54 -205 108 -39 36 -51 58 -79 138 l-33 95
12 99 c16 140 38 182 165 315 76 80 106 118 106 136 0 17 10 32 35 47 48 31
53 59 22 116 -27 51 -61 186 -80 327 l-13 90 -46 6 c-25 4 -63 19 -86 34 -26
17 -69 32 -123 42 -178 32 -244 61 -330 145 -56 54 -68 73 -82 124 -29 102
-14 292 28 374 40 77 99 136 169 168 142 67 256 66 434 -3 80 -31 102 -35 180
-35 l89 0 141 143 c202 204 205 208 199 282 -2 33 -19 101 -37 150 -50 140
-63 208 -56 305 8 134 27 183 99 255 124 124 277 164 436 116 89 -27 184 -92
227 -154 42 -61 75 -168 83 -274 5 -60 11 -88 24 -100 17 -17 19 -17 42 9 29
33 45 106 45 204 0 65 -4 82 -32 132 -77 138 -181 254 -259 286 -24 10 -52 22
-61 27 -25 13 -337 10 -373 -3z"/>
<path d="M3193 4319 c-24 -4 -79 -27 -124 -51 -141 -74 -249 -213 -249 -320 0
-41 3 -48 19 -48 20 0 50 29 123 120 92 115 195 169 340 177 76 5 98 2 175
-22 82 -25 92 -32 155 -96 54 -54 70 -78 82 -121 36 -129 28 -287 -19 -384
-30 -61 -105 -148 -146 -170 -42 -21 -54 -50 -34 -80 21 -33 43 -30 115 12 81
47 121 84 165 149 20 30 40 55 46 55 5 0 9 14 9 30 0 17 10 50 22 73 17 34 22
60 22 132 1 93 -8 125 -77 265 -29 59 -170 200 -227 227 -118 56 -145 63 -252
62 -57 -1 -122 -5 -145 -10z"/>
<path d="M1763 4038 c-6 -7 -18 -38 -28 -68 -10 -30 -28 -79 -41 -109 -13 -29
-24 -59 -24 -65 0 -7 19 -10 54 -8 50 3 56 1 72 -23 20 -30 190 -619 203 -703
11 -72 4 -100 -30 -118 -16 -8 -29 -21 -29 -28 0 -12 165 -156 179 -156 21 1
34 25 51 93 11 42 26 90 35 106 20 40 20 41 -21 41 -77 0 -90 22 -163 293 -27
100 -63 230 -79 288 -17 58 -33 132 -37 163 l-7 57 41 38 c38 35 40 39 25 59
-8 12 -27 28 -42 36 -15 8 -52 37 -82 65 -60 55 -63 57 -77 39z"/>
<path d="M2237 4014 c-4 -4 -7 -22 -7 -39 0 -35 26 -65 56 -65 67 0 392 -97
427 -128 21 -19 21 -19 51 50 l25 56 -47 17 c-26 10 -56 26 -68 36 -11 11 -32
19 -47 19 -15 0 -52 14 -82 31 -46 26 -57 29 -76 18 -22 -11 -134 -7 -199 7
-14 3 -29 2 -33 -2z"/>
<path d="M3150 3644 c-36 -7 -82 -16 -102 -19 -46 -7 -49 -24 -12 -77 l27 -38
-42 -45 c-23 -25 -49 -60 -58 -80 -21 -45 -53 -55 -172 -55 l-96 0 -18 -93
c-40 -202 -28 -178 -128 -252 -88 -66 -89 -67 -138 -60 l-50 7 -10 -39 c-6
-21 -11 -44 -11 -51 0 -7 -9 -37 -19 -68 -17 -48 -18 -56 -5 -61 24 -9 113 5
152 24 33 16 38 24 47 73 6 30 17 65 23 77 12 22 59 63 72 63 8 0 -69 -372
-80 -383 -4 -4 -35 -12 -69 -17 -68 -9 -91 -22 -91 -51 0 -21 53 -64 99 -80
26 -9 32 -16 28 -33 -3 -11 -24 -113 -48 -226 -23 -113 -44 -206 -45 -208 -1
-2 -12 1 -23 7 -46 25 -53 169 -10 237 l22 36 -57 57 c-31 31 -69 64 -85 74
l-28 17 -43 -116 c-46 -127 -45 -134 16 -134 16 0 38 -6 47 -13 18 -12 171
-536 204 -694 19 -89 13 -113 -32 -137 -19 -11 -35 -25 -35 -32 0 -7 30 -36
66 -66 36 -29 79 -64 95 -77 34 -28 54 -23 63 16 4 15 23 68 43 116 19 48 32
91 28 95 -4 4 -28 7 -53 7 -46 0 -48 1 -69 45 -25 50 -153 470 -153 500 0 19
8 20 220 20 207 0 220 1 230 19 5 11 29 109 52 218 22 109 42 200 44 202 2 2
27 -11 57 -28 30 -17 66 -31 80 -31 15 0 49 -9 76 -20 28 -10 80 -22 116 -26
59 -6 67 -10 80 -35 8 -15 15 -34 15 -42 0 -8 13 -40 29 -73 16 -32 32 -75 35
-95 4 -21 12 -41 19 -46 6 -4 94 -7 193 -5 l182 4 47 69 c26 38 53 73 60 77 6
4 28 32 48 64 31 49 129 156 195 212 22 19 22 19 36 -16 14 -33 12 -91 -9
-243 -14 -102 -145 -268 -235 -300 -25 -8 -60 -23 -79 -32 -43 -20 -187 -14
-308 12 -77 17 -83 17 -107 1 -14 -9 -26 -20 -26 -25 0 -11 82 -72 125 -94 49
-24 182 -50 238 -45 29 3 99 22 157 43 102 37 108 41 190 125 82 83 86 88 109
170 29 101 41 305 21 364 -6 20 -15 36 -19 36 -3 0 -15 16 -25 34 l-19 35 38
52 c21 29 61 80 89 114 29 33 67 83 85 110 87 129 145 204 152 199 5 -3 9 -20
9 -39 0 -30 -74 -397 -160 -799 -23 -105 -28 -142 -19 -152 9 -11 54 -14 210
-14 l198 0 6 33 c64 365 112 589 171 797 13 47 24 96 24 109 0 13 6 47 14 75
8 28 21 80 30 116 36 142 44 167 60 197 21 42 20 66 -3 87 -17 16 -27 17 -90
7 -38 -6 -179 -11 -313 -11 -134 0 -253 -3 -265 -6 -21 -6 -107 -105 -364
-423 -68 -84 -133 -164 -144 -177 l-20 -24 -62 26 c-39 15 -93 27 -141 31
l-79 6 -28 86 c-54 173 -78 238 -122 336 -24 55 -51 115 -58 133 l-15 32 -206
0 -205 0 3 23 c5 34 61 57 140 57 l66 0 12 53 c7 28 14 82 17 120 7 77 11 75
-107 51z m49 -1051 c61 -149 111 -274 111 -276 0 -9 -82 5 -179 29 -51 13
-113 24 -138 24 -40 0 -45 2 -40 20 3 10 29 132 58 270 46 220 54 248 65 228
7 -13 62 -145 123 -295z m627 48 c40 -18 65 -41 46 -41 -5 0 -31 -27 -57 -61
-26 -33 -51 -57 -56 -52 -10 11 -59 142 -59 159 0 21 77 17 126 -5z"/>
<path d="M8677 3370 c-76 -4 -143 -12 -149 -18 -6 -6 -16 -50 -23 -98 -7 -48
-27 -146 -44 -218 -17 -72 -69 -309 -117 -526 -47 -217 -95 -417 -105 -443
-11 -26 -19 -65 -19 -85 l0 -37 78 3 c129 5 274 22 289 33 7 6 13 22 13 35 0
41 18 74 40 74 13 0 43 -22 73 -54 29 -29 67 -61 85 -71 89 -44 279 -57 438
-30 300 53 368 114 458 421 115 387 90 530 -101 586 -99 29 -333 36 -478 14
-145 -22 -155 -26 -260 -96 -49 -33 -96 -60 -102 -60 -26 0 -24 47 6 120 16
41 46 131 66 200 20 69 46 147 58 174 l21 49 -23 18 c-13 11 -33 18 -45 17
-11 0 -83 -4 -159 -8z m606 -689 c71 -12 100 -44 98 -111 -1 -65 -35 -192 -64
-245 -12 -21 -36 -47 -54 -57 -73 -43 -445 -50 -535 -10 -71 31 -73 37 -56
150 27 170 80 252 180 271 55 11 368 12 431 2z"/>
<path d="M7965 3353 c-27 -3 -55 -9 -62 -14 -16 -14 -48 -157 -73 -329 -26
-185 -36 -220 -59 -220 -22 0 -42 22 -69 75 -39 78 -39 78 -270 88 -243 10
-428 -2 -494 -31 -90 -40 -158 -145 -217 -338 -47 -151 -73 -289 -74 -394 -2
-83 1 -101 23 -144 40 -80 57 -88 217 -97 76 -4 181 -13 233 -19 91 -12 100
-12 200 13 58 15 142 45 188 68 46 22 90 38 97 35 8 -3 17 -27 21 -56 l7 -50
168 0 168 0 10 53 c6 28 29 144 51 257 21 113 66 329 100 480 34 151 68 313
77 360 8 47 24 109 34 138 10 30 19 71 19 93 l0 39 -122 -2 c-68 -1 -145 -3
-173 -5z m-380 -694 c60 -16 85 -44 85 -94 0 -50 -41 -219 -65 -264 -36 -70
-126 -94 -355 -93 -162 0 -221 9 -262 42 -34 26 -39 61 -23 150 26 145 66 218
139 251 36 16 67 19 241 19 114 0 217 -5 240 -11z"/>
<path d="M900 3050 c-8 -5 -46 -22 -85 -36 -96 -36 -135 -55 -135 -64 0 -4 26
-37 58 -72 31 -36 71 -82 88 -103 32 -41 54 -41 54 -2 0 13 7 33 16 46 16 22
22 23 78 18 57 -6 408 -98 629 -165 130 -40 147 -52 147 -102 0 -22 5 -40 10
-40 6 0 37 11 70 24 32 13 74 27 92 31 37 8 58 22 58 39 0 9 -35 56 -136 179
-20 24 -50 7 -59 -34 -12 -53 -37 -55 -176 -16 -68 20 -209 58 -314 86 -270
72 -292 79 -322 105 -20 18 -26 32 -27 67 -1 46 -16 59 -46 39z"/>
<path d="M11910 2959 c-144 -13 -236 -53 -312 -138 -51 -57 -74 -123 -84 -242
-11 -127 25 -175 151 -199 97 -18 263 -27 340 -17 39 5 127 7 196 5 139 -5
184 -20 223 -71 l20 -27 -20 -27 c-56 -76 -136 -95 -398 -97 -201 -1 -216 3
-252 63 -10 17 -25 33 -33 37 -9 3 -72 10 -141 16 -107 9 -130 9 -162 -5 -32
-14 -37 -21 -49 -71 -11 -49 -10 -60 6 -96 10 -22 35 -56 56 -75 65 -59 165
-78 494 -96 204 -11 215 -11 377 14 151 23 175 29 240 64 125 67 168 155 176
359 l5 131 -34 25 c-19 14 -50 30 -68 37 -49 16 -227 29 -514 37 l-248 6 -15
30 c-24 46 -11 73 48 102 44 22 65 26 137 26 174 0 308 -17 369 -46 52 -24 71
-27 220 -31 l162 -6 0 81 0 81 -44 30 c-25 16 -58 39 -74 51 -16 12 -62 30
-102 41 -64 17 -106 19 -329 18 -141 -1 -294 -5 -341 -10z"/>
<path d="M10008 2943 c-31 -5 -34 -11 -43 -118 -3 -38 -17 -119 -30 -180 -13
-60 -30 -155 -39 -210 -9 -55 -26 -139 -37 -186 -24 -102 -17 -148 32 -204 88
-99 371 -156 549 -111 138 36 221 74 295 135 27 23 58 41 67 41 29 0 33 -44 9
-93 -12 -24 -21 -53 -21 -66 l0 -22 158 6 c86 3 167 8 179 11 28 5 50 71 63
188 6 49 15 96 20 106 5 10 23 96 40 191 38 214 64 328 90 386 10 24 22 59 26
78 9 49 -10 55 -184 55 -129 0 -153 -2 -172 -18 -18 -14 -31 -55 -66 -212 -24
-107 -50 -213 -57 -235 -8 -22 -20 -58 -26 -81 -13 -50 -78 -125 -137 -160
-118 -69 -383 -70 -461 -1 -35 31 -35 32 -30 92 5 61 81 370 118 480 47 139
52 135 -155 134 -88 -1 -173 -4 -188 -6z"/>
<path d="M5537 2930 c-86 -11 -187 -43 -238 -77 -51 -33 -104 -114 -140 -214
-39 -106 -100 -375 -106 -470 -6 -74 -5 -76 27 -112 43 -49 139 -95 236 -112
113 -21 499 -31 594 -16 41 7 111 16 155 21 108 11 203 50 269 110 88 81 125
172 166 413 25 151 26 258 1 312 -22 49 -96 116 -148 135 -45 16 -702 24 -816
10z m550 -275 c21 -9 41 -21 45 -28 13 -20 9 -144 -7 -215 -36 -157 -80 -188
-288 -202 -214 -14 -349 7 -377 59 -24 46 -2 197 42 285 11 23 36 58 56 79
l36 37 228 0 c183 0 236 -3 265 -15z"/>
<path d="M1940 2410 c-30 -10 -71 -19 -91 -19 -48 -1 -68 -24 -44 -51 11 -12
15 -28 11 -43 -3 -13 -55 -77 -115 -143 -119 -130 -428 -423 -462 -438 -15 -7
-30 -5 -56 9 -34 19 -36 19 -48 1 -29 -39 -57 -233 -36 -246 7 -4 50 1 94 11
45 10 99 19 120 19 49 0 57 21 23 61 -14 17 -26 36 -26 43 0 19 260 296 431
459 137 132 146 138 179 134 19 -3 45 -8 56 -12 20 -6 23 -1 38 69 10 41 18
94 19 118 2 52 -10 56 -93 28z"/>
<path d="M3281 1768 c-25 -29 -101 -109 -170 -177 l-124 -124 -5 -97 c-4 -84
-1 -107 19 -166 21 -59 24 -88 24 -199 0 -148 -13 -189 -80 -263 -79 -88 -229
-162 -330 -162 -88 0 -228 59 -311 132 -49 43 -79 101 -98 188 -31 142 -77
200 -119 149 -17 -21 -19 -36 -15 -119 5 -92 6 -98 59 -193 29 -54 69 -115 88
-134 38 -40 153 -97 216 -109 22 -4 56 -15 75 -25 73 -39 214 -17 369 58 92
45 198 148 237 231 37 78 50 203 36 334 -6 60 -17 108 -26 121 -106 145 -107
155 -18 210 65 40 201 177 228 229 9 18 32 52 50 75 l34 42 -37 25 c-21 15
-42 26 -47 26 -5 0 -30 -24 -55 -52z"/>
</g>
</svg>
