<?xml version="1.0" standalone="no"?>
<!DOCTYPE svg PUBLIC "-//W3C//DTD SVG 20010904//EN"
 "http://www.w3.org/TR/2001/REC-SVG-20010904/DTD/svg10.dtd">
<svg version="1.0" xmlns="http://www.w3.org/2000/svg"
 width="243.000000pt" height="208.000000pt" viewBox="0 0 243.000000 208.000000"
 preserveAspectRatio="xMidYMid meet">
<metadata>
Created by potrace 1.16, written by Peter Selinger 2001-2019
</metadata>
<g transform="translate(0.000000,208.000000) scale(0.100000,-0.100000)"
fill="#000000" stroke="none">
<path d="M850 1671 c-18 -35 -12 -51 20 -51 64 0 188 -33 265 -70 147 -72 252
-178 321 -325 31 -67 64 -196 64 -250 0 -18 5 -25 19 -25 43 0 51 24 51 157 0
125 0 127 -35 197 -72 144 -202 273 -349 347 l-78 39 -134 0 c-122 0 -134 -2
-144 -19z"/>
<path d="M1417 1652 c26 -21 76 -69 111 -107 l62 -68 0 87 c0 126 0 126 -121
126 l-101 0 49 -38z"/>
<path d="M840 1446 c0 -60 -8 -54 94 -71 97 -16 223 -104 282 -197 31 -48 64
-148 64 -193 l0 -35 65 0 65 0 -6 48 c-21 171 -100 307 -236 402 -81 57 -201
100 -279 100 l-49 0 0 -54z"/>
<path d="M842 1121 c2 -121 6 -154 18 -161 8 -5 82 -10 164 -10 l149 0 -6 45
c-19 136 -139 252 -281 271 l-47 7 3 -152z"/>
<path d="M1068 831 c-78 -26 -128 -96 -128 -181 0 -113 79 -190 196 -190 41 0
51 -4 74 -31 21 -26 35 -32 80 -37 l54 -5 -32 40 c-17 22 -38 46 -47 53 -13
11 -11 16 15 46 73 83 45 240 -52 290 -36 19 -123 27 -160 15z m133 -87 c31
-28 44 -87 30 -133 -32 -109 -172 -109 -201 0 -18 65 9 132 60 152 26 11 91 0
111 -19z"/>
<path d="M500 645 l0 -185 35 0 35 0 0 123 0 122 56 -102 c75 -139 84 -139
156 -1 l53 101 3 -121 3 -122 34 0 35 0 0 185 0 185 -43 0 -42 0 -58 -115
c-31 -64 -61 -114 -65 -111 -4 2 -32 54 -62 115 l-54 111 -43 0 -43 0 0 -185z"/>
<path d="M1320 800 c0 -29 1 -30 50 -30 l50 0 0 -155 0 -155 40 0 40 0 0 155
0 155 50 0 c49 0 50 1 50 30 l0 30 -140 0 -140 0 0 -30z"/>
<path d="M1640 801 c0 -29 2 -30 53 -33 l52 -3 3 -152 3 -153 39 0 40 0 0 155
0 155 53 0 c51 0 52 0 52 30 l0 30 -147 0 -148 0 0 -29z"/>
</g>
</svg>
